/* XPM */
static const char *absdiff_xpm[] = {
"60 20 5 1",
" 	c None",
".	c #FFFFFF",
"+	c #000000",
"@	c #C0C0C0",
"#	c #808080",
"............................................................",
"............................................................",
"............................................................",
".........+..........@#...............##+######@...+.........",
".........+..........+#................@+.....#+#..+.........",
".........+.........#++................#+.....#++..+.........",
".........+........@##+................+#.....++#..+.........",
".........+........#.#+...............@+@....#+@...+.........",
".........+.......#@.#+...............@+######.....+.........",
".........+.......#..@+@..............#+....@+@....+.........",
".........+......#@@@#+@...@+++++++...+#.....#+....+.........",
".........+.....@#@@@@+#.............@+@.....#+@...+.........",
".........+.....#.....+#.............#+......++....+.........",
".........+....#@.....+#.............#+.....#+@....+.........",
".........+..@#+#...@#++@@.........@#+#@@@#+#@.....+.........",
".........+..++++...#+++++.........+++++++++.......+.........",
"............................................................",
"............................................................",
"............................................................",
"............................................................"};
