/* XPM */
static const char * additionponderee_xpm[] = {
"60 20 81 1",
" 	c None",
".	c #FFFFFF",
"+	c #000000",
"@	c #BCBCBC",
"#	c #B9B9B9",
"$	c #0A0A0A",
"%	c #333333",
"&	c #BABABA",
"*	c #5F5F5F",
"=	c #2C2C2C",
"-	c #5C5C5C",
";	c #F6F6F6",
">	c #A9A9A9",
",	c #161616",
"'	c #010101",
")	c #212121",
"!	c #F5F5F5",
"~	c #111111",
"{	c #D4D4D4",
"]	c #0F0F0F",
"^	c #F4F4F4",
"/	c #777777",
"(	c #0B0B0B",
"_	c #353535",
":	c #DEDEDE",
"<	c #262626",
"[	c #E3E3E3",
"}	c #444444",
"|	c #070707",
"1	c #FDFDFD",
"2	c #C0C0C0",
"3	c #282828",
"4	c #A4A4A4",
"5	c #4C4C4C",
"6	c #4B4B4B",
"7	c #A2A2A2",
"8	c #7C7C7C",
"9	c #F1F1F1",
"0	c #797979",
"a	c #4E4E4E",
"b	c #C5C5C5",
"c	c #505050",
"d	c #737373",
"e	c #2D2D2D",
"f	c #060606",
"g	c #030303",
"h	c #464646",
"i	c #A8A8A8",
"j	c #454545",
"k	c #EFEFEF",
"l	c #101010",
"m	c #8D8D8D",
"n	c #3F3F3F",
"o	c #EEEEEE",
"p	c #1C1C1C",
"q	c #B2B2B2",
"r	c #F7F7F7",
"s	c #F2F2F2",
"t	c #E6E6E6",
"u	c #020202",
"v	c #E5E5E5",
"w	c #090909",
"x	c #131313",
"y	c #6F6F6F",
"z	c #8B8B8B",
"A	c #626262",
"B	c #656565",
"C	c #909090",
"D	c #313131",
"E	c #515151",
"F	c #767676",
"G	c #A0A0A0",
"H	c #141414",
"I	c #191919",
"J	c #818181",
"K	c #2E2E2E",
"L	c #C1C1C1",
"M	c #3B3B3B",
"N	c #D0D0D0",
"O	c #414141",
"P	c #050505",
"............................................................",
"............................................................",
"............................................................",
"............................................................",
"............................................................",
"............................+...............................",
".............@+#............+......+++$%&...................",
".............*=-......+.....+......+..;>,.....+.............",
"......+')#..!~{]^.....+.....+/(_:..+..;><.....+.....[}|+....",
".......123..45.67.....+.....+890a..++++(b.....+.....cd!.....",
".....&ef+g..h>.ij..+++++++..+k.kl..+..;mn..+++++++..lo......",
".....pqrs+.tg+++uv....+.....+k.kl..+...^w.....+.....lo......",
".....x2sy+.zA...Bz....+.....+8s0a..+..;CD.....+.....EF;.....",
".....GHIJ+.K2...LK....+.....+/(_:..+++wMN.....+.....[OP+....",
"............................................................",
"............................................................",
"............................................................",
"............................................................",
"............................................................",
"............................................................"};
