/* XPM */
static const char *addition_xpm[] = {
/* columns rows colors chars-per-pixel */
"60 20 5 1",
"o c Black",
"  c #FFFFFF",
"X c #808080",
". c #C0C0C0",
"O c #800080",
/* pixels */
"                                                            ",
"                                                            ",
"                                                            ",
"                    .X               XXoXXXXXX.             ",
"                    oX                .o     XoX            ",
"                   Xoo                Xo     Xoo            ",
"                  .XXo                oX     ooX            ",
"                  X Xo        O      .o.    Xo.             ",
"                 X. Xo        O      .oXXXXXX               ",
"                 X  .o.       O      Xo    .o.              ",
"                X...Xo.   .ooooooo   oX     Xo              ",
"               .X....oX       O     .o.     Xo.             ",
"               X     oX       O     Xo      oo              ",
"              X.     oX       O     Xo     Xo.              ",
"            .XoX   .Xoo..         .XoX...XoX.               ",
"            oooo   Xooooo         ooooooooo                 ",
"                                                            ",
"                                                            ",
"                                                            ",
"                                                            "
};
