/* XPM */
static const  char * Agast_xpm[] = {
"48 48 93 2",
"  	c None",
". 	c #FFFFFF",
"+ 	c #BCBCBC",
"@ 	c #000000",
"# 	c #B9B9B9",
"$ 	c #5F5F5F",
"% 	c #2C2C2C",
"& 	c #5C5C5C",
"* 	c #F5F5F5",
"= 	c #111111",
"- 	c #D4D4D4",
"; 	c #0F0F0F",
"> 	c #F4F4F4",
", 	c #DCDCDC",
"' 	c #343434",
") 	c #0B0B0B",
"! 	c #777777",
"~ 	c #010101",
"{ 	c #212121",
"] 	c #ADADAD",
"^ 	c #2B2B2B",
"/ 	c #070707",
"( 	c #1F1F1F",
"_ 	c #9B9B9B",
": 	c #A4A4A4",
"< 	c #4C4C4C",
"[ 	c #4B4B4B",
"} 	c #A2A2A2",
"| 	c #7C7C7C",
"1 	c #F1F1F1",
"2 	c #797979",
"3 	c #FDFDFD",
"4 	c #C0C0C0",
"5 	c #282828",
"6 	c #121212",
"7 	c #C1C1C1",
"8 	c #FAFAFA",
"9 	c #E1E1E1",
"0 	c #636363",
"a 	c #464646",
"b 	c #A9A9A9",
"c 	c #A8A8A8",
"d 	c #454545",
"e 	c #F0F0F0",
"f 	c #EFEFEF",
"g 	c #BABABA",
"h 	c #2D2D2D",
"i 	c #060606",
"j 	c #030303",
"k 	c #737373",
"l 	c #323232",
"m 	c #696969",
"n 	c #BBBBBB",
"o 	c #E6E6E6",
"p 	c #020202",
"q 	c #E5E5E5",
"r 	c #1C1C1C",
"s 	c #B2B2B2",
"t 	c #F7F7F7",
"u 	c #F2F2F2",
"v 	c #DEDEDE",
"w 	c #909090",
"x 	c #3A3A3A",
"y 	c #5B5B5B",
"z 	c #8B8B8B",
"A 	c #626262",
"B 	c #656565",
"C 	c #4A4A4A",
"D 	c #7E7E7E",
"E 	c #7B7B7B",
"F 	c #131313",
"G 	c #6F6F6F",
"H 	c #666666",
"I 	c #DADADA",
"J 	c #C5C5C5",
"K 	c #0E0E0E",
"L 	c #2E2E2E",
"M 	c #333333",
"N 	c #6E6E6E",
"O 	c #0C0C0C",
"P 	c #A0A0A0",
"Q 	c #141414",
"R 	c #191919",
"S 	c #818181",
"T 	c #9A9A9A",
"U 	c #232323",
"V 	c #080808",
"W 	c #AFAFAF",
"X 	c #808080",
"Y 	c #F9F9F9",
"Z 	c #8C8C8C",
"` 	c #3C3C3C",
" .	c #CECECE",
". . . . . . . . . . . . . . . . . . . . . . . . . . . . . . . . . . . . . . . . . . . . . . . . ",
". . . . . . . . . . . . . . . . . . . . . . . . . . . . . . . . . . . . . . . . . . . . . . . . ",
". . . . . . . . . . . . . . . . . . . . . . . . . . . . . . . . . . . . . . . . . . . . . . . . ",
". . . . . . . . . . . . . . . . . . . . . . . . . . . . . . . . . . . . . . . . . . . . . . . . ",
". . . . . . . . . . . . . . . . . . . . . . . . . . . . . . . . . . . . . . . . . . . . . . . . ",
". . . . . . . . . . . . . . . . . . . . . . . . . . . . . . . . . . . . . . . . . . . . . . . . ",
". . . . . . . . . . . . . . . . . . . . . . . . . . . . . . . . . . . . . . . . . . . . . . . . ",
". . . . . . . . . . . . . . . . . . . . . . . . . . . . . . . . . . . . . . . . . . . . . . . . ",
". . . . . . . . . . . . . . . . . . . . . . . . . . . . . . . . . . . . . . . . . . . . . . . . ",
". . . . . . . . . . . . . . . . . . . . . . . . . . . . . . . . . . . . . . . . . . . . . . . . ",
". . . . . . . . . . . . . . . . . . . . . . . . . . . . . . . . . . . . . . . . . . . . . . . . ",
". . . . . . . . . . . . . . . . . . . . . . . . . . . . . . . . . . . . . . . . . . . . . . . . ",
". . . . . . . . . . . . . . . . . . . . . . . . . . . . . . . . . . . . . . . . . . . . . . . . ",
". . . . . . . . . . . . . . . . . . . . . . . . . . . . . . . . . . . . . . . . . . . . . . . . ",
". . . . . . . . . . . . . . . . . . . . . . . . . . . . . . . . . . . . . . . . . . . . . . . . ",
". . . . . . . . . . . . . . . . . . . . . . . . . . . . . . . . . . . . . . . . . . . . . . . . ",
". . . . . . . . . . . . . . . . . . . . . . . . . . . . . . . . . . . . . . . . . . . . . . . . ",
". . . . . . . . + @ # . . . . . . . . . . . . . . . . . . . . . . . . @ . . . . . . . . . . . . ",
". . . . . . . . $ % & . . . . . . . . . . . . . . . . . . . . . . . . @ . . . . . . . . . . . . ",
". . . . . . . * = - ; > . . , ' ) ! @ . . . @ ~ { # . . ] ^ / ( _ . @ @ @ @ . . . . . . . . . . ",
". . . . . . . : < . [ } . . [ | 1 2 @ . . . . 3 4 5 . . 6 7 8 9 0 . . @ . . . . . . . . . . . . ",
". . . . . . . a b . c d . . ; e . f @ . . g h i @ j . . k l m n . . . @ . . . . . . . . . . . . ",
". . . . . . o j @ @ @ p q . ; e . f @ . . r s t u @ . . . v w x y . . @ . . . . . . . . . . . . ",
". . . . . . z A . . . B z . C D u E @ . . F 4 u G @ . . H I 8 J F . . K v . . . . . . . . . . . ",
". . . . . . L 4 . . . 7 L . I M ) N O . . P Q R S @ . . T U V ^ W . . X K @ . . . . . . . . . . ",
". . . . . . . . . . . . . . . . Y Z ` . . . . . . . . . . . . . . . . . . . . . . . . . . . . . ",
". . . . . . . . . . . . . . . @ j L  .. . . . . . . . . . . . . . . . . . . . . . . . . . . . . ",
". . . . . . . . . . . . . . . . . . . . . . . . . . . . . . . . . . . . . . . . . . . . . . . . ",
". . . . . . . . . . . . . . . . . . . . . . . . . . . . . . . . . . . . . . . . . . . . . . . . ",
". . . . . . . . . . . . . . . . . . . . . . . . . . . . . . . . . . . . . . . . . . . . . . . . ",
". . . . . . . . . . . . . . . . . . . . . . . . . . . . . . . . . . . . . . . . . . . . . . . . ",
". . . . . . . . . . . . . . . . . . . . . . . . . . . . . . . . . . . . . . . . . . . . . . . . ",
". . . . . . . . . . . . . . . . . . . . . . . . . . . . . . . . . . . . . . . . . . . . . . . . ",
". . . . . . . . . . . . . . . . . . . . . . . . . . . . . . . . . . . . . . . . . . . . . . . . ",
". . . . . . . . . . . . . . . . . . . . . . . . . . . . . . . . . . . . . . . . . . . . . . . . ",
". . . . . . . . . . . . . . . . . . . . . . . . . . . . . . . . . . . . . . . . . . . . . . . . ",
". . . . . . . . . . . . . . . . . . . . . . . . . . . . . . . . . . . . . . . . . . . . . . . . ",
". . . . . . . . . . . . . . . . . . . . . . . . . . . . . . . . . . . . . . . . . . . . . . . . ",
". . . . . . . . . . . . . . . . . . . . . . . . . . . . . . . . . . . . . . . . . . . . . . . . ",
". . . . . . . . . . . . . . . . . . . . . . . . . . . . . . . . . . . . . . . . . . . . . . . . ",
". . . . . . . . . . . . . . . . . . . . . . . . . . . . . . . . . . . . . . . . . . . . . . . . ",
". . . . . . . . . . . . . . . . . . . . . . . . . . . . . . . . . . . . . . . . . . . . . . . . ",
". . . . . . . . . . . . . . . . . . . . . . . . . . . . . . . . . . . . . . . . . . . . . . . . ",
". . . . . . . . . . . . . . . . . . . . . . . . . . . . . . . . . . . . . . . . . . . . . . . . ",
". . . . . . . . . . . . . . . . . . . . . . . . . . . . . . . . . . . . . . . . . . . . . . . . ",
". . . . . . . . . . . . . . . . . . . . . . . . . . . . . . . . . . . . . . . . . . . . . . . . ",
". . . . . . . . . . . . . . . . . . . . . . . . . . . . . . . . . . . . . . . . . . . . . . . . ",
". . . . . . . . . . . . . . . . . . . . . . . . . . . . . . . . . . . . . . . . . . . . . . . . "};
