/* XPM */
static const char * approxchain_xpm[] = {
"48 48 68 1",
" 	c None",
".	c #FFFFFF",
"+	c #000000",
"@	c #0C0C0C",
"#	c #989898",
"$	c #5E5E5E",
"%	c #111111",
"&	c #ADADAD",
"*	c #6D6D6D",
"=	c #050505",
"-	c #BBBBBB",
";	c #1B1B1B",
">	c #686868",
",	c #B0B0B0",
"'	c #CDCDCD",
")	c #1D1D1D",
"!	c #B4B4B4",
"~	c #272727",
"{	c #A1A1A1",
"]	c #FCFCFC",
"^	c #2A2A2A",
"/	c #2B2B2B",
"(	c #FAFAFA",
"_	c #4A4A4A",
":	c #AFAFAF",
"<	c #848484",
"[	c #121212",
"}	c #020202",
"|	c #F9F9F9",
"1	c #F8F8F8",
"2	c #070707",
"3	c #FBFBFB",
"4	c #080808",
"5	c #BCBCBC",
"6	c #C5C5C5",
"7	c #0B0B0B",
"8	c #C6C6C6",
"9	c #C0C0C0",
"0	c #B6B6B6",
"a	c #F4F4F4",
"b	c #414141",
"c	c #BABABA",
"d	c #404040",
"e	c #F7F7F7",
"f	c #676767",
"g	c #0D0D0D",
"h	c #6C6C6C",
"i	c #B9B9B9",
"j	c #696969",
"k	c #CBCBCB",
"l	c #B5B5B5",
"m	c #646464",
"n	c #D3D3D3",
"o	c #383838",
"p	c #060606",
"q	c #6A6A6A",
"r	c #878787",
"s	c #353535",
"t	c #909090",
"u	c #B3B3B3",
"v	c #CECECE",
"w	c #131313",
"x	c #090909",
"y	c #F5F5F5",
"z	c #FEFEFE",
"A	c #363636",
"B	c #D2D2D2",
"C	c #040404",
"................................................",
"................................................",
"................................................",
"................................................",
"................................................",
"................................................",
"................................................",
"................................................",
"................................................",
"................................................",
"................................................",
"................................................",
".....+@#..+$%&..+$%&..+*=.-;;-.>,.,>............",
"......')..+!!~..+!!~..+{].^!!/.(_:_(............",
"....<[+}..+|12..+|12..+3..2|14..5+6.............",
"....789+..+00~..+00~..+...^0!^.abcde............",
"....fgh+..+$%&..+$%&..+...i;;i.jk.lm............",
"..........+.....+...............................",
"..........+.....+...............................",
"..........+.....................................",
"..........+...........+.........................",
"..........+.....................................",
"....nop+..+q7r...+@#..+..+q7r...................",
"....st1...+uvw....')..+..+uvw...................",
"....xy....+z.+..<[+}..+..+z.+...................",
"....At1...+..+..789+..+..+..+...................",
"....BAC+..+..+..fgh+..+..+..+...................",
"................................................",
"................................................",
"................................................",
"................................................",
"................................................",
"................................................",
"................................................",
"................................................",
"................................................",
"................................................",
"................................................",
"................................................",
"................................................",
"................................................",
"................................................",
"................................................",
"................................................",
"................................................",
"................................................",
"................................................",
"................................................"};
