/* XPM */
static const char * approxpoly_xpm[] = {
"48 48 84 1",
" 	c None",
".	c #FFFFFF",
"+	c #000000",
"@	c #0C0C0C",
"#	c #989898",
"$	c #5E5E5E",
"%	c #111111",
"&	c #ADADAD",
"*	c #6D6D6D",
"=	c #050505",
"-	c #BBBBBB",
";	c #1B1B1B",
">	c #686868",
",	c #B0B0B0",
"'	c #CDCDCD",
")	c #1D1D1D",
"!	c #B4B4B4",
"~	c #272727",
"{	c #A1A1A1",
"]	c #FCFCFC",
"^	c #2A2A2A",
"/	c #2B2B2B",
"(	c #FAFAFA",
"_	c #4A4A4A",
":	c #AFAFAF",
"<	c #848484",
"[	c #121212",
"}	c #020202",
"|	c #F9F9F9",
"1	c #F8F8F8",
"2	c #070707",
"3	c #FBFBFB",
"4	c #080808",
"5	c #BCBCBC",
"6	c #C5C5C5",
"7	c #0B0B0B",
"8	c #C6C6C6",
"9	c #C0C0C0",
"0	c #B6B6B6",
"a	c #F4F4F4",
"b	c #414141",
"c	c #BABABA",
"d	c #404040",
"e	c #F7F7F7",
"f	c #676767",
"g	c #0D0D0D",
"h	c #6C6C6C",
"i	c #B9B9B9",
"j	c #696969",
"k	c #CBCBCB",
"l	c #B5B5B5",
"m	c #646464",
"n	c #ECECEC",
"o	c #FDFDFD",
"p	c #252525",
"q	c #AAAAAA",
"r	c #101010",
"s	c #5D5D5D",
"t	c #6A6A6A",
"u	c #878787",
"v	c #606060",
"w	c #B3B3B3",
"x	c #9C9C9C",
"y	c #353535",
"z	c #CECECE",
"A	c #131313",
"B	c #4C4C4C",
"C	c #1E1E1E",
"D	c #AEAEAE",
"E	c #060606",
"F	c #FEFEFE",
"G	c #393939",
"H	c #737373",
"I	c #292929",
"J	c #9D9D9D",
"K	c #9F9F9F",
"L	c #585858",
"M	c #090909",
"N	c #8A8A8A",
"O	c #2C2C2C",
"P	c #030303",
"Q	c #383838",
"R	c #E7E7E7",
"S	c #ACACAC",
"................................................",
"................................................",
"................................................",
"................................................",
"................................................",
"................................................",
"................................................",
"................................................",
"................................................",
"............+@#..+$%&..+$%&..+*=.-;;-.>,.,>.....",
".............')..+!!~..+!!~..+{].^!!/.(_:_(.....",
"...........<[+}..+|12..+|12..+3..2|14..5+6......",
"...........789+..+00~..+00~..+...^0!^.abcde.....",
"...........fgh+..+$%&..+$%&..+...i;;i.jk.lm.....",
".................+.....+........................",
".................+.....+........................",
"................................................",
"................................................",
"................................................",
"................................................",
"................................................",
"................................................",
"................................................",
"................................................",
"................................................",
"................................................",
"................................................",
"................................................",
"................................................",
"................................................",
"................................................",
"....................+...........................",
"....................+...........................",
"....................+...........................",
"........+$%&..-;;-..+n~o.3p5qrs+..-;;-..+t7u....",
"........+!!~..^!!/..+.vw.xy.p00+..^!!/..+wzA....",
"........+|12..2|14..+.kB|CD.E|1+..2|14..+F.+....",
"........+00~..^0!^..+..GHIF.p00+..^0!^..+..+....",
"........+$%&..i;;i..+..J+K..qrLM..i;;i..+..+....",
"........+.............]N/(....:O................",
"........+.............PQR....+%S................",
"................................................",
"................................................",
"................................................",
"................................................",
"................................................",
"................................................",
"................................................"};
