/* XPM */
static const char *camera_xpm[] = {
/* columns rows colors chars-per-pixel */
"64 64 4 1",
". c Black",
"  c #FFFFFF",
"X c #808080",
"o c #C0C0C0",
/* pixels */
"                                                                ",
"                                                                ",
"                 .XXXXo                                         ",
"                XX oX.X                                         ",
"               .X     .X                                        ",
"               .o     ..                                        ",
"              .X      ..                                        ",
"             .oo      ..o                                       ",
"             X.X      ..X                                       ",
"             ..o  .   ..X                                       ",
"             ..   o   ..o                                       ",
"              .       ..X              X                        ",
"              .       ..o             ...                       ",
"              .       .Xo    X X     X.o..                      ",
"              .X     X.........     .. .X.X                     ",
"              ..o   o... o.......  X. oX XX                     ",
"               .......X.........X  XX .o  .                     ",
"           ........XX  . o     . XX.o .   .                     ",
"         ........ X    .   oo oX ..X X.   XX                    ",
"       ......          .  oo..X....X X.X   .                    ",
"    ......       o     .  X. XX..o.  .XX   ..                   ",
"   .....     oXXX.     . o. X.... .  .o.   ..                   ",
"   ..o    oXXo  XX     . X. .X ...X o.oX   .                    ",
"    .o   .o    XXX     . .XXX  ...o oXXX   .                    ",
"    XX  XX oXX...X     . .oXo  . .  X. X   .                    ",
"    o.o  ...X o        . Xo.   . .  XXo.   .                    ",
"     .ooXX             . .X.   . .  oXo.   .                    ",
"     XX                . .o.   . .  oXoX   .                    ",
"     X.                . .o.  o. .  o.o.   .                    ",
"     o.                . XX.o  . .   XXX  o.                    ",
"      .                . .XoX  XooX  XXX  XX                    ",
"      .                . XX . XXX X  X.   X                     ",
"      .                .  . X...X .o X.   X                     ",
"      .                .  .o X. .o .  .  XX                     ",
"      ..               .X  ..o.XX.X.X .o XX                     ",
"      ..                .  X...XoXXX.o .X.o                     ",
"      ..   .............X   oo..   oX.oo.                       ",
"      .........         .     ..     .X.Xo                      ",
"      ..                .     X.      XX                        ",
"      .                 .     X.X                               ",
"     o.                 X  X....X                               ",
"      ........................X                                 ",
"     o......................                                    ",
"     ..                                                         ",
"     .Xo                                                        ",
"                                                                ",
"                                                                ",
"                                                                ",
"                                                                ",
"                                                                ",
"                                                                ",
"              ..X.  .X. ..X.   X..   .o  .o  .oX                ",
"              .o .o.o   .o .o  X .o ..o  .XX oo.X XX            ",
"              .XX. .oXX .XX.    XX o..o  . .o.o. . Xo           ",
"              .o . .o .o.o .o  XX  .X.o  . .o.o.o X.            ",
"              .o XX .X.o..X.   .XXo  .o  .X. .oXXXX.            ",
"                                                                ",
"                                                                ",
"                                                                ",
"                                                                ",
"                                                                ",
"                                                                ",
"                                                                ",
"                                                                "
};
