/* XPM */
static const char *camerafloat_xpm[] = {
/* columns rows colors chars-per-pixel */
"64 64 4 1",
". c Black",
"  c #FFFFFF",
"X c #808080",
"o c #C0C0C0",
/* pixels */
"                                                                ",
"                                                                ",
"                 ....Xo                                         ",
"                .X oX.X                                         ",
"               .X     .X                                        ",
"              ..o     X.                                        ",
"              .X      X.                                        ",
"              .o      X.o                                       ",
"              .X      X.X                                       ",
"             ..o  .   X.X                                       ",
"             ..   o   ..o                                       ",
"             ..o      ..X                                       ",
"             ..o      .Xo              ..X                      ",
"             ..o      .Xo            X.o..                      ",
"              .X     ...XXXXXXXoo   .. .X.                      ",
"              X.o   .... oXX.XXXX  X. oX XX                     ",
"               .......X.XX.XXX..X  XX .oo .                     ",
"           XXXX....XX  . o     . XX.o . o .                     ",
"         ........ X    .   oo oX ..X X.    .                    ",
"       X...            .  oo..XXX..X X.Xo  .                    ",
"   XXX...        o     .  X. XX..o.  .XXo  .                    ",
"   ...X      ......    . o. X...X .  .o.   .                    ",
"   ..     ....  X..    . X. .X XXXX o.o.   .                    ",
"    .    ..    XX.     . .XXX  .o.o oXX.   .                    ",
"    XX  .. o......     . .oXo  . .  X. .   .                    ",
"    o.o  .....o        . Xo.   . .  XXo.   .                    ",
"     .....            o. .X.   . .  oXo.   .                    ",
"     X.                . .o.   . .  oXo.   .                    ",
"     X.                . .o.  o. .  o.o.   .                    ",
"     o.                . XX.o  . .   XX.   .                    ",
"      .                . .XoX  XooX  X..  ..                    ",
"      .                . XX . XXX X  X.   ..                    ",
"      .                ..o. X...X .o X.   ..                    ",
"      .                .. .o X. .o .  .  X.                     ",
"      .                o. o..o.XX.X.X .o X.                     ",
"      .               o .  X...XoXXX.o .X.o                     ",
"      .    ...............  oo..   oX.oo.                       ",
"      .  ......         ..    ..     .X.Xo                      ",
"      ...               ..    X.      XX                        ",
"      .                 ..    X.Xo                              ",
"     o.    o ooXX.XXooo ...X....Xo                              ",
"      .....X..................Xoo                               ",
"     o.X.......XXoX..X......o                                   ",
"     ..                                                         ",
"     .Xo                                                        ",
"                                                                ",
"                                                                ",
"                                                                ",
"                                                                ",
"                                                                ",
"                                                                ",
"         o.X.X X..Xo.X.X   .o.         X                        ",
"         o. o.o.  oo. o.  X.o. XX  XX X.                        ",
"         o.X.Xo. Xoo.X.X  o. .o. . XX. .                        ",
"         o. o.o. o.o. o.  o.o.o. . .o.o.                        ",
"         o.  . X.X.o.X.X  o.o. ..X .X. .                        ",
"                                                                ",
"                                                                ",
"                                                                ",
"                                                                ",
"                                                                ",
"                                                                ",
"                                                                ",
"                                                                "
};
