/* XPM */
static const char *chaphautblanc_xpm[] = {
/* columns rows colors chars-per-pixel */
"60 20 4 1",
"o c Black",
"  c #FFFFFF",
"X c #808080",
". c #C0C0C0",
/* pixels */
"                                                            ",
"                                                            ",
"                                                            ",
"            .X                                     .X       ",
"            oX              XooXXXXX.              oX       ",
"           Xoo               XX    XoX            Xoo       ",
"           XXo               o.    Xoo            XXo       ",
"          X Xo              .o.    XoX           X Xo       ",
"         .X Xo              Xo    .o.           .X Xo       ",
"         X  .o.   .XXXX     XoXXXXX             X  .o.      ",
"        ..  .o.  .X   XX    oX   .oX           ..  .o.      ",
"        XXXXXo.  X     Xo  .o.    Xo           XXXXXo.      ",
"       ..   .oX  X     Xo  .o     Xo.         ..   .oX      ",
"       X     oX  X     Xo  XX     Xo   .ooo   X     oX      ",
"      X      oX  .X   XX   oX    .o.         X      oX      ",
"    .XoX   .XooX. .oXXX  .XoX..XXo.        .XoX   .XooX.    ",
"    oooo   Xooooo  Xoo   oooooooo.         oooo   Xooooo    ",
"                                                            ",
"                                                            ",
"                                                            "
};
