/* XPM */
static const char *chapeaubas_xpm[] = {
/* columns rows colors chars-per-pixel */
"60 40 4 1",
"o c Black",
"  c #FFFFFF",
". c #808080",
"X c #C0C0C0",
/* pixels */
"                                                            ",
"                                                            ",
"                                                            ",
"                                                            ",
"                                                            ",
"                                                            ",
"                                                            ",
"                                                            ",
"         .X                                         .X      ",
"        Xo.              ..oo....o.                Xo.      ",
"        .o.                o.     oo.              .o.      ",
"       X.o.               XoX     .oo             X.o.      ",
"       . o.               .o      ooo             . o.      ",
"      .X oo               .o     .o.             .X oo      ",
"      .  .o               o.   X.oX              .  .o      ",
"     .   .o    X....     Xo......X              .   .o      ",
"    X.   .oX  X.   ..    .o     Xo.            X.   .oX     ",
"    .....ooX  .     .o   .o      oo            .....ooX     ",
"   XX    XoX  .     .o   o.      oo   Xoooo   XX    XoX     ",
"   .     Xo.  .     .o  XoX     Xo.           .     Xo.     ",
"  .X     Xo.  X.   ..   .o     Xoo           .X     Xo.     ",
"X.o.X   X.oo.. Xo...  X.oo.X...o.          X.o.X   X.oo..   ",
"ooooX   oooooo  .oo   ooooooooo.           ooooX   oooooo   ",
"                                                            ",
"                                                            ",
"                                                            ",
"                                                            ",
"                                                            ",
"                                                            ",
"                                                            ",
"                                                            ",
"                                                            ",
"                                                            ",
"                                                            ",
"                                                            ",
"                                                            ",
"                                                            ",
"                                                            ",
"                                                            ",
"                                                            "
};
