/* XPM */
static const char *chaphautnoir_xpm[] = {
/* columns rows colors chars-per-pixel */
"60 20 4 1",
"o c Black",
"  c #FFFFFF",
"X c #808080",
". c #C0C0C0",
/* pixels */
"                                                            ",
"                                                            ",
"                                                            ",
"            .X                 X                            ",
"            oX                Xo              XooXXXXX.     ",
"           Xoo               .Xo               oX    XoX    ",
"          .XXo               X.o               o.    Xoo    ",
"          X Xo              ...o.             .o     oX.    ",
"         X. Xo              X .o.             Xo   .XX      ",
"         X  .o.            X.  o.   .XXXX     oX.XXXX       ",
"        X...Xo.            X...oX  .X   .X.   o.    Xo      ",
"       .X....oX           X....oX  X     Xo  .o     .o.     ",
"       X     oX   .oooo  ..    oX  X     Xo  Xo     Xo      ",
"      X.     oX          X     XX  XX   .X.  oX    .oX      ",
"    .XoX   .Xoo..      .Xo.   Xoo.. XXXXX  .XoX...Xo.       ",
"    oooo   Xooooo      oooX  .ooooo  Xoo   oooooooo.        ",
"                                                            ",
"                                                            ",
"                                                            ",
"                                                            "
};
