/* XPM */
static const char *cmpconnexe_xpm[] = {
/* columns rows colors chars-per-pixel */
"32 32 4 1",
"  c #FFFFFF",
"X c #808080",
". c #800000",
"o c #808000",
/* pixels */
"                                ",
"                                ",
"                                ",
"                                ",
"                      ........  ",
"                      ........  ",
"      XXXX            ........  ",
"      XXXX            ........  ",
"    XXXXXX            ........  ",
"    XXXXXX            ........  ",
"    XXXXXXXX          ........  ",
"    XXXXXXXX          ........  ",
"    XXXXXXXX          ........  ",
"    XXXXXXXX          ........  ",
"    XXXXXXXX          ........  ",
"    XXXXXXXX          ........  ",
"    XXXXXXXX          ........  ",
"    XXXXXXXX          ........  ",
"      XX                        ",
"      XX                        ",
"                                ",
"                                ",
"                                ",
"                                ",
"            oooooooooooooo      ",
"            oooooooooooooo      ",
"          oooooooooooooooooo    ",
"          oooooooooooooooooo    ",
"            oooooooooooo        ",
"            oooooooooooo        ",
"                                ",
"                                "
};
