/* XPM */
static const char *contour_xpm[] = {
/* columns rows colors chars-per-pixel */
"32 32 4 1",
"  c #FFFFFF",
"X c #808080",
". c #800000",
"o c #808000",
/* pixels */
"                                ",
"                                ",
"                                ",
"                                ",
"                      ........  ",
"                      .      .  ",
"      XXXX            .      .  ",
"      X  X            .      .  ",
"    XX   X            .      .  ",
"    X    X            .      .  ",
"    X     XX          .      .  ",
"    X      X          .      .  ",
"    X      X          .      .  ",
"    X      X          .      .  ",
"    X      X          .      .  ",
"    X      X          .      .  ",
"    X      X          .      .  ",
"    XX  XXXX          ........  ",
"      XX                        ",
"      XX                        ",
"                                ",
"                                ",
"                                ",
"                                ",
"            ooooooooooooo       ",
"            o            o      ",
"           o             ooo    ",
"           o            o       ",
"            o          o        ",
"            oooooooooooo        ",
"                                ",
"                                "
};
