/* XPM */
static const char * convexhull_xpm[] = {
"48 48 103 2",
"  	c None",
". 	c #FFFFFF",
"+ 	c #E3E3E3",
"@ 	c #444444",
"# 	c #070707",
"$ 	c #000000",
"% 	c #E0E0E0",
"& 	c #3F3F3F",
"* 	c #0C0C0C",
"= 	c #404040",
"- 	c #E1E1E1",
"; 	c #828282",
"> 	c #0F0F0F",
", 	c #1C1C1C",
"' 	c #B5B5B5",
") 	c #EDEDED",
"! 	c #111111",
"~ 	c #EBEBEB",
"{ 	c #121212",
"] 	c #EAEAEA",
"^ 	c #4D4D4D",
"/ 	c #0D0D0D",
"( 	c #2D2D2D",
"_ 	c #C9C9C9",
": 	c #696969",
"< 	c #A4A4A4",
"[ 	c #A6A6A6",
"} 	c #686868",
"| 	c #505050",
"1 	c #737373",
"2 	c #F5F5F5",
"3 	c #797979",
"4 	c #F1F1F1",
"5 	c #777777",
"6 	c #7D7D7D",
"7 	c #F3F3F3",
"8 	c #AAAAAA",
"9 	c #252525",
"0 	c #636363",
"a 	c #858585",
"b 	c #848484",
"c 	c #646464",
"d 	c #595959",
"e 	c #A0A0A0",
"f 	c #F8F8F8",
"g 	c #B6B6B6",
"h 	c #2E2E2E",
"i 	c #FAFAFA",
"j 	c #434343",
"k 	c #BBBBBB",
"l 	c #BFBFBF",
"m 	c #424242",
"n 	c #101010",
"o 	c #EEEEEE",
"p 	c #EFEFEF",
"q 	c #F7F7F7",
"r 	c #FCFCFC",
"s 	c #020202",
"t 	c #D0D0D0",
"u 	c #1B1B1B",
"v 	c #FBFBFB",
"w 	c #D1D1D1",
"x 	c #131313",
"y 	c #E9E9E9",
"z 	c #282828",
"A 	c #2B2B2B",
"B 	c #E8E8E8",
"C 	c #3E3E3E",
"D 	c #A7A7A7",
"E 	c #E5E5E5",
"F 	c #161616",
"G 	c #DBDBDB",
"H 	c #515151",
"I 	c #767676",
"J 	c #F6F6F6",
"K 	c #7C7C7C",
"L 	c #F2F2F2",
"M 	c #ABABAB",
"N 	c #373737",
"O 	c #ACACAC",
"P 	c #5B5B5B",
"Q 	c #E2E2E2",
"R 	c #F4F4F4",
"S 	c #B8B8B8",
"T 	c #A8A8A8",
"U 	c #313131",
"V 	c #414141",
"W 	c #050505",
"X 	c #0B0B0B",
"Y 	c #1D1D1D",
"Z 	c #5A5A5A",
"` 	c #212121",
" .	c #5E5E5E",
"..	c #939393",
"+.	c #8B8B8B",
"@.	c #626262",
"#.	c #040404",
"$.	c #272727",
"%.	c #BABABA",
"&.	c #B1B1B1",
"*.	c #181818",
"=.	c #191919",
"-.	c #B4B4B4",
". . . . . . . . . . . . . . . . . . . . . . . . . . . . . . . . . . . . . . . . . . . . . . . . ",
". . . . . . . . . . . . . . . . . . . . . . . . . . . . . . . . . . . . . . . . . . . . . . . . ",
". . . . . . . . . . . . . . . . . . . . . . . . . . . . . . . . . . . . . . . . . . . . . . . . ",
". . . . . . . . . . . . . . . . . . . . . . . . . . . . . . . . . . . . . . . . . . . . . . . . ",
". . . . . . . . . . . . . . . . . . . . . . . . . . . . . . . . . . . . . . . . . . . . . . . . ",
". . . . . . . . . . . . . . . . . . . . . . . . . . . . . . . . . . . . . . . . . . . . . . . . ",
". . . . . . . . . . . . . . . . . . . . . . . . . . . . . . . . . . . . . . . . . . . . . . . . ",
". . . . . . . . . . . . . . . . . . . . . . . . . . . . . . . . . . . . . . . . . . . . . . . . ",
". . . . . . . . . . . . . . . . . . . . . . . . . . . . . . . . . . . . . . . . . . . . . . . . ",
". . . . . . . . . . . . . . . . . . . . . . . . . . . . . . . . . . . . . . . . . . . . . . . . ",
". . . . . . . . . . . . . . . . . . . . . . . . . . . . . . . . . . . . . . . . . . . . . . . . ",
". . . . . . . . . . . . . . . . . . . . . . . . . . . . . . . . . . . . . . . . . . . . . . . . ",
". . . . . . . . . . . . . . . . . . . . . . . . . . . . . . . . . . . . . . . . . . . . . . . . ",
". . . . . . . . . . . . . . . . . . . . . . . . . . . . . . . . . . . . . . . . . . . . . . . . ",
". . . . . . . . . . . . . . . . . . . . . . . . . . . . . . . . . . . . . . . . . . . . . . . . ",
". . . . . . . . . . . . . . . . . . . . . . . . . . . . . . . . . . . . . . . . . . . . . . . . ",
". . . . . . . . . . . . . . . . . . . . . . . . . . . . . . . . . . . . . . . . . . . . . . . . ",
". . . . . . + @ # $ . . % & * = - . . $ ; > , ' ) ! ~ . . ~ { ) ] ^ / ( _ . : < . . [ } . . . . ",
". . . . . . | 1 2 . . . ^ 3 4 5 | . . $ 6 7 8 9 . 0 a . . b c . d e f g h . i j k l m i . . . . ",
". . . . . . n o . . . . n p . o ! . . $ q . r s . t u v i u w . x $ $ $ s . . y z A B . . . . . ",
". . . . . . n o . . . . n p . o ! . . $ . . . $ . . C D [ C . . { E . . . . . w F F G . . . . . ",
". . . . . . H I J . . . ^ K L 3 | . . $ . . . $ . . M N N O . . P P ] Q d . R A S T U q . . . . ",
". . . . . . + V W $ . . % & X = - . . $ . . . $ . . v Y Y r . . ) Z ! ` 8 .  .... . +.@.. . . . ",
". . . . . . . . . . . . . . . . . . . . . . . . . . . . . . . . . . . . . . . . . . . . . . . . ",
". . . . . . . . . . . . . . . . . . . . . . . . . . . . . . . . . . . . . . . . . . . . . . . . ",
". . . . . . . . . . . . . . . . . . . . . . . . . . . . . . . . . . . . . . . . . . . . . . . . ",
". . . . . . . . . . . . . . . . . . . . . . . . . . . . . . . . . . . . . . . . . . . . . . . . ",
". . . . . . . . . . . . . . . . . . . . . . . . . . . . . . . . . . . . . . . . . . . . . . . . ",
". . . . . . . . . . . . . . . . . . . . . . . . . . . . . . . . . . . . . . . . . . . . . . . . ",
". . . . . . . . . . . . . . . . . . . . . . . . . . . . . . . . . . . . . . . . . . . . . . . . ",
". . . . . . . . . . . . . . . . . . . . . . . . . . . . . . . . . . . . . . . . . . . . . . . . ",
". . . . . . . . . . . . . . . . . . . . . . . . . . . . . . . . . . . . . . . . . . . . . . . . ",
". . . . . . . . . . . . . . . . . . . . . . . . . . . . . . . . . . . . . . . . . . . . . . . . ",
". . . . . . . . . . . . . . . . . . . . . . . . . . . . . . . . . . . . . . . . . . . . . . . . ",
". . . . . . . . . . . . . . . . . . . . . . . . . . . . . . . . . . . . . . . . . . . . . . . . ",
". . . . . . . . . . . . . . . . . . . . . . . . . . . . . . . . . . . . . . . . . . . . . . . . ",
". . . . . . . . . . . . . . . . . . . . . . . . . . . . . . . . . . . . . . . . . . . . . . . . ",
". . . . . . . . . . . . . . $ . . $ . . $ . . $ . . $ . . . $ . . . . . . . . . . . . . . . . . ",
". . . . . . . . . . . . . . $ . . $ . . $ . . $ . . $ . . . $ . . . . . . . . . . . . . . . . . ",
". . . . . . . . . . . . . . $ . . $ . . $ . . $ . . $ . . . $ . . . . . . . . . . . . . . . . . ",
". . . . . . . . . . . . . . $ $ $ $ . . #.v v #.. . $ . . . $ . . . . . . . . . . . . . . . . . ",
". . . . . . . . . . . . . . $ . . $ . . $.k %.z . . $ . . . $ . . . . . . . . . . . . . . . . . ",
". . . . . . . . . . . . . . $ . . $ . . &.*.=.-.. . $ $ $ $ $ $ $ $ . . . . . . . . . . . . . . ",
". . . . . . . . . . . . . . . . . . . . . . . . . . . . . . . . . . . . . . . . . . . . . . . . ",
". . . . . . . . . . . . . . . . . . . . . . . . . . . . . . . . . . . . . . . . . . . . . . . . ",
". . . . . . . . . . . . . . . . . . . . . . . . . . . . . . . . . . . . . . . . . . . . . . . . ",
". . . . . . . . . . . . . . . . . . . . . . . . . . . . . . . . . . . . . . . . . . . . . . . . ",
". . . . . . . . . . . . . . . . . . . . . . . . . . . . . . . . . . . . . . . . . . . . . . . . "};
