/* XPM */
static const char * converttype_xpm[] = {
"60 20 102 2",
"  	c None",
". 	c #FFFFFF",
"+ 	c #000000",
"@ 	c #272727",
"# 	c #FDFDFD",
"$ 	c #F8F8F8",
"% 	c #1C1C1C",
"& 	c #DBDBDB",
"* 	c #777777",
"= 	c #0B0B0B",
"- 	c #353535",
"; 	c #DEDEDE",
"> 	c #EAEAEA",
", 	c #4D4D4D",
"' 	c #0D0D0D",
") 	c #2D2D2D",
"! 	c #C9C9C9",
"~ 	c #E3E3E3",
"{ 	c #444444",
"] 	c #070707",
"^ 	c #010101",
"/ 	c #212121",
"( 	c #B9B9B9",
"_ 	c #ADADAD",
": 	c #2B2B2B",
"< 	c #1F1F1F",
"[ 	c #9B9B9B",
"} 	c #3F3F3F",
"| 	c #A6A6A6",
"1 	c #9C9C9C",
"2 	c #5A5A5A",
"3 	c #7C7C7C",
"4 	c #F1F1F1",
"5 	c #797979",
"6 	c #4E4E4E",
"7 	c #595959",
"8 	c #A0A0A0",
"9 	c #B6B6B6",
"0 	c #2E2E2E",
"a 	c #505050",
"b 	c #737373",
"c 	c #F5F5F5",
"d 	c #C0C0C0",
"e 	c #282828",
"f 	c #121212",
"g 	c #C1C1C1",
"h 	c #FAFAFA",
"i 	c #E1E1E1",
"j 	c #636363",
"k 	c #2A2A2A",
"l 	c #FEFEFE",
"m 	c #D5D5D5",
"n 	c #EFEFEF",
"o 	c #101010",
"p 	c #131313",
"q 	c #020202",
"r 	c #EEEEEE",
"s 	c #BABABA",
"t 	c #060606",
"u 	c #030303",
"v 	c #323232",
"w 	c #696969",
"x 	c #BBBBBB",
"y 	c #404040",
"z 	c #A9A9A9",
"A 	c #B3B3B3",
"B 	c #525252",
"C 	c #E5E5E5",
"D 	c #B2B2B2",
"E 	c #F7F7F7",
"F 	c #F2F2F2",
"G 	c #909090",
"H 	c #3A3A3A",
"I 	c #5B5B5B",
"J 	c #0E0E0E",
"K 	c #3E3E3E",
"L 	c #CECECE",
"M 	c #E2E2E2",
"N 	c #515151",
"O 	c #767676",
"P 	c #F6F6F6",
"Q 	c #6F6F6F",
"R 	c #666666",
"S 	c #DADADA",
"T 	c #C5C5C5",
"U 	c #808080",
"V 	c #4A4A4A",
"W 	c #EDEDED",
"X 	c #111111",
"Y 	c #AAAAAA",
"Z 	c #414141",
"` 	c #050505",
" .	c #141414",
"..	c #191919",
"+.	c #818181",
"@.	c #9A9A9A",
"#.	c #232323",
"$.	c #080808",
"%.	c #AFAFAF",
"&.	c #F9F9F9",
"*.	c #5E5E5E",
"=.	c #D3D3D3",
". . . . . . . . . . . . . . . . . . . . . . . . . . . . . . . . . . . . . . . . . . . . . . . . . . . . . . . . . . . . ",
". . . . . . . . . . . . . . . . . . . . . . . . . . . . . . . . . . . . . . . . . . . . . . . . . . . . . . . . . . . . ",
". . . . . . . . . . . . . . . . . . . . . . . . . . . . . . . . . . . . . . . . . . . . . . . . . . . . . . . . . . . . ",
". . . . . . . . . . . . . . . . . . . . . . . . . . . . . . . . . . . . . . . . . . . . . . . . . . . . . . . . . . . . ",
". . . . . . . . . . . . . . . . . . . . . . . . . . . . . . . . . . . . . . . . . . . . . . . . . . . . . . . . . . . . ",
". . . . . . . . . . . . . . . . . . . . . . . . . . . . . . . . . . . . . . . . . . . . . . . . . . . . . . . . . . . . ",
". . . . . . . . . . . . . . . . . . . . . . . . . . . . . . . . . . . . . . . . . . . . . . . . . . . . . . . . . . . . ",
". . . . + . . . . . . . . . . . . . . . . . . . . . . . . . . . . . . . . . . . . . . . . . . . . . . . + . . . . . . . ",
". . . . + . . . . . . . . . . . . . . . . . . . . . . . . . . . . . . . . . . . . . . . . . . . . . . . + . . . . . . . ",
". . . + + + + @ # . . $ % & + * = - ; . . > , ' ) ! . . . . . . ~ { ] + . . . + ^ / ( . . _ : ] < [ . + + + + . . . . . ",
". . . . + . . } | . . 1 2 . + 3 4 5 6 . . 7 8 $ 9 0 . . . . . . a b c . . . . . # d e . . f g h i j . . + . . . . . . . ",
". . . . + . . d k # l : m . + n . n o . . p + + + q . . . . . . o r . . . . s ) t + u . . b v w x . . . + . . . . . . . ",
". . . . + . . . y z A B . . + n . n o . . f C . . . . . . . . . o r . . . . % D E F + . . . ; G H I . . + . . . . . . . ",
". . . . J ; . . d ) K L . . + 3 F 5 6 . . I I > M 7 . . . . . . N O P . . . p d F Q + . . R S h T p . . J ; . . . . . . ",
". . . . U J + . . K V . . . + * = - ; . . W 2 X / Y . . . . . . ~ Z ` + . . 8  ...+.+ . . @.#.$.: %.. . U J + . . . . . ",
". . . . . . . . &.*.=.. . . + . . . . . . . . . . . . . . . . . . . . . . . . . . . . . . . . . . . . . . . . . . . . . ",
". . . . . . . + u 8 . . . . + . . . . . . . . . . . . . . . . . . . . . . . . . . . . . . . . . . . . . . . . . . . . . ",
". . . . . . . . . . . . . . . . . . . . . . . . . . . . . . . . . . . . . . . . . . . . . . . . . . . . . . . . . . . . ",
". . . . . . . . . . . . . . . . . . . . . . . . . . . . . . . . . . . . . . . . . . . . . . . . . . . . . . . . . . . . ",
". . . . . . . . . . . . . . . . . . . . . . . . . . . . . . . . . . . . . . . . . . . . . . . . . . . . . . . . . . . . "};
