/* XPM */
static const char * convexdefaut_xpm[] = {
"48 48 93 2",
"  	c None",
". 	c #FFFFFF",
"+ 	c #D3D3D3",
"@ 	c #383838",
"# 	c #060606",
"$ 	c #000000",
"% 	c #BBBBBB",
"& 	c #1B1B1B",
"* 	c #6A6A6A",
"= 	c #0B0B0B",
"- 	c #878787",
"; 	c #EDEDED",
"> 	c #121212",
", 	c #EAEAEA",
"' 	c #C3C3C3",
") 	c #232323",
"! 	c #161616",
"~ 	c #B2B2B2",
"{ 	c #686868",
"] 	c #B0B0B0",
"^ 	c #353535",
"/ 	c #909090",
"( 	c #F8F8F8",
"_ 	c #2A2A2A",
": 	c #B4B4B4",
"< 	c #2B2B2B",
"[ 	c #B3B3B3",
"} 	c #CECECE",
"| 	c #131313",
"1 	c #666666",
"2 	c #808080",
"3 	c #7F7F7F",
"4 	c #676767",
"5 	c #2F2F2F",
"6 	c #B5B5B5",
"7 	c #CDCDCD",
"8 	c #252525",
"9 	c #FAFAFA",
"0 	c #4A4A4A",
"a 	c #AFAFAF",
"b 	c #090909",
"c 	c #F5F5F5",
"d 	c #070707",
"e 	c #F9F9F9",
"f 	c #080808",
"g 	c #FEFEFE",
"h 	c #D4D4D4",
"i 	c #EFEFEF",
"j 	c #D5D5D5",
"k 	c #030303",
"l 	c #010101",
"m 	c #020202",
"n 	c #BCBCBC",
"o 	c #C5C5C5",
"p 	c #363636",
"q 	c #B6B6B6",
"r 	c #444444",
"s 	c #3E3E3E",
"t 	c #454545",
"u 	c #303030",
"v 	c #FCFCFC",
"w 	c #F4F4F4",
"x 	c #414141",
"y 	c #BABABA",
"z 	c #404040",
"A 	c #F7F7F7",
"B 	c #D2D2D2",
"C 	c #040404",
"D 	c #B9B9B9",
"E 	c #C9C9C9",
"F 	c #2C2C2C",
"G 	c #696969",
"H 	c #CBCBCB",
"I 	c #646464",
"J 	c #8B8B8B",
"K 	c #181818",
"L 	c #E2E2E2",
"M 	c #ADADAD",
"N 	c #111111",
"O 	c #5F5F5F",
"P 	c #0C0C0C",
"Q 	c #989898",
"R 	c #262626",
"S 	c #1D1D1D",
"T 	c #848484",
"U 	c #C6C6C6",
"V 	c #C0C0C0",
"W 	c #B1B1B1",
"X 	c #E6E6E6",
"Y 	c #0D0D0D",
"Z 	c #6C6C6C",
"` 	c #6B6B6B",
" .	c #737373",
". . . . . . . . . . . . . . . . . . . . . . . . . . . . . . . . . . . . . . . . . . . . . . . . ",
". . . . . . . . . . . . . . . . . . . . . . . . . . . . . . . . . . . . . . . . . . . . . . . . ",
". . . . . . . . . . . . . . . . . . . . . . . . . . . . . . . . . . . . . . . . . . . . . . . . ",
". . . . . . . . . . . . . . . . . . . . . . . . . . . . . . . . . . . . . . . . . . . . . . . . ",
". . . . . . . . . . . . . . . . . . . . . . . . . . . . . . . . . . . . . . . . . . . . . . . . ",
". . . . . . . . . . . . . . . . . . . . . . . . . . . . . . . . . . . . . . . . . . . . . . . . ",
". . . . . . . . . . . . . . . . . . . . . . . . . . . . . . . . . . . . . . . . . . . . . . . . ",
". . . . . . . . . . . . . . . . . . . . . . . . . . . . . . . . . . . . . . . . . . . . . . . . ",
". . . . . . . . . . . . . . . . . . . . . . . . . . . . . . . . . . . . . . . . . . . . . . . . ",
". . . . . . . . . . . . . . . . . . . . . . . . . . . . . . . . . . . . . . . . . . . . . . . . ",
". . . . . . . . . . . . . . . . . . . . . . . . . . . . . . . . . . . . . . . . . . . . . . . . ",
". . . . . . . . . . . . . . . . . . . . . . . . . . . . . . . . . . . . . . . . . . . . . . . . ",
". . . . . . . . . . . . . . . . . . . . . . . . . . . . . . . . . . . . . . . . . . . . . . . . ",
". . . . . . + @ # $ . . % & & % . . $ * = - ; > , . , > ; ' ) ! ~ . { ] . ] { . . . . . . . . . ",
". . . . . . ^ / ( . . . _ : : < . . $ [ } | . 1 2 . 3 4 . 5 6 7 8 . 9 0 a 0 9 . . . . . . . . . ",
". . . . . . b c . . . . d e ( f . . $ g . $ . h ! i ! j . f k l m . . n $ o . . . . . . . . . . ",
". . . . . . p / ( . . . _ q : _ . . $ . . $ . . r s t . . u [ v . . w x y z A . . . . . . . . . ",
". . . . . . B p C $ . . D & & D . . $ . . $ . . [ $ : . . E F m $ . G H . 6 I . . . . . . . . . ",
". . . . . . . . . . . . . . . . . . . . . . . . . . . . . . . . . . . . . . . . . . . . . . . . ",
". . . . . . . . . . . . . . . . . . . . . . . . . . . . . . . . . . . . . . . . . . . . . . . . ",
". . . . . . . . . $ . . . . . . . . J b $ . . . . . . . . . . . . . . . . . . . . . . . . . . . ",
". . . . . . . . . $ . . . . . . . . K L . . . . . . . . . . . . . . . . . . . . . . . . . . . . ",
". . . . . . . . . $ . . . . . . . . m . . . . . . . . . . . . . . $ . . . . . . . . . . . . . . ",
". . . . . . M N O $ . . ' ) ! ~ . $ $ $ . . $ P Q . . $ . . $ . $ $ $ $ . . . . . . . . . . . . ",
". . . . . . R : : $ . . 5 6 7 8 . . $ . . . . 7 S . . $ . . $ . . $ . . . . . . . . . . . . . . ",
". . . . . . # e ( $ . . f k l m . . $ . . T > $ m . . $ . g $ . . $ . . . . . . . . . . . . . . ",
". . . . . . R q q $ . . u [ v . . . $ . . = U V $ . . | } W $ . . b X . . . . . . . . . . . . . ",
". . . . . . M N O $ . . E F m $ . . $ . . 4 Y Z $ . . - = ` $ . .  .P $ . . . . . . . . . . . . ",
". . . . . . . . . . . . . . . . . . . . . . . . . . . . . . . . . . . . . . . . . . . . . . . . ",
". . . . . . . . . . . . . . . . . . . . . . . . . . . . . . . . . . . . . . . . . . . . . . . . ",
". . . . . . . . . . . . . . . . . . . . . . . . . . . . . . . . . . . . . . . . . . . . . . . . ",
". . . . . . . . . . . . . . . . . . . . . . . . . . . . . . . . . . . . . . . . . . . . . . . . ",
". . . . . . . . . . . . . . . . . . . . . . . . . . . . . . . . . . . . . . . . . . . . . . . . ",
". . . . . . . . . . . . . . . . . . . . . . . . . . . . . . . . . . . . . . . . . . . . . . . . ",
". . . . . . . . . . . . . . . . . . . . . . . . . . . . . . . . . . . . . . . . . . . . . . . . ",
". . . . . . . . . . . . . . . . . . . . . . . . . . . . . . . . . . . . . . . . . . . . . . . . ",
". . . . . . . . . . . . . . . . . . . . . . . . . . . . . . . . . . . . . . . . . . . . . . . . ",
". . . . . . . . . . . . . . . . . . . . . . . . . . . . . . . . . . . . . . . . . . . . . . . . ",
". . . . . . . . . . . . . . . . . . . . . . . . . . . . . . . . . . . . . . . . . . . . . . . . ",
". . . . . . . . . . . . . . . . . . . . . . . . . . . . . . . . . . . . . . . . . . . . . . . . ",
". . . . . . . . . . . . . . . . . . . . . . . . . . . . . . . . . . . . . . . . . . . . . . . . ",
". . . . . . . . . . . . . . . . . . . . . . . . . . . . . . . . . . . . . . . . . . . . . . . . ",
". . . . . . . . . . . . . . . . . . . . . . . . . . . . . . . . . . . . . . . . . . . . . . . . ",
". . . . . . . . . . . . . . . . . . . . . . . . . . . . . . . . . . . . . . . . . . . . . . . . ",
". . . . . . . . . . . . . . . . . . . . . . . . . . . . . . . . . . . . . . . . . . . . . . . . ",
". . . . . . . . . . . . . . . . . . . . . . . . . . . . . . . . . . . . . . . . . . . . . . . . ",
". . . . . . . . . . . . . . . . . . . . . . . . . . . . . . . . . . . . . . . . . . . . . . . . ",
". . . . . . . . . . . . . . . . . . . . . . . . . . . . . . . . . . . . . . . . . . . . . . . . "};
