/* XPM */
static const char *convolution_xpm[] = {
/* columns rows colors chars-per-pixel */
"60 20 7 1",
"o c Black",
"  c #FFFFFF",
"X c #808080",
"+ c #008080",
". c #C0C0C0",
"O c #808000",
"@ c #800080",
/* pixels */
"                                                            ",
"                                                            ",
"                                                            ",
"                     .X                                     ",
"                     oX              XXoXXXXXX.             ",
"                    Xoo               .o     XoX            ",
"                    XXo       O+      Xo     Xoo            ",
"                   X Xo     @ .. @    oX     ooX            ",
"                  .X Xo     .oooo.   .o.    Xo.             ",
"                  X  .o.    .oooo.   .oXXXXXX               ",
"                 ..  .o.    @ .. @   Xo    .o.              ",
"                 XXXXXo.      O+     oX     Xo              ",
"                ..   .oX            .o.     Xo.             ",
"                X     oX            Xo      oo              ",
"               X      oX            Xo     Xo.              ",
"             .XoX   .XooX.        .XoX...XoX.               ",
"             oooo   Xooooo        ooooooooo                 ",
"                                                            ",
"                                                            ",
"                                                            "
};
