/* XPM */
static const char *dilatation_xpm[] = {
/* columns rows colors chars-per-pixel */
"60 20 4 1",
"o c Black",
"  c #FFFFFF",
"X c #808080",
". c #C0C0C0",
/* pixels */
"                                                            ",
"                                                            ",
"                   .X                                       ",
"                   oX                   XooXXXXX.           ",
"                  Xoo                    XX    XoX          ",
"                  XXo      .XXXX.        o.    Xoo          ",
"                 X Xo     X.     X.     .o.    XoX          ",
"                .X Xo    X        ..    Xo    .o.           ",
"                X  .o.  ..         X    XoXXXXX             ",
"               ..  .o.  X          .o   oX   .oX            ",
"               XXXXXo.  XXXXXXXXXXXXo  .o.    Xo            ",
"              ..   .oX  X          .o  .o     Xo.           ",
"              X     oX  X          X.  XX     Xo            ",
"             X      oX   X        ..   oX    .o.            ",
"           .XoX   .XooX. .X      .X  .XoX..XXo.             ",
"           oooo   Xooooo   XX...X.   oooooooo.              ",
"                            Xooo                            ",
"                                                            ",
"                                                            ",
"                                                            "
};
