/* XPM */
static const char *distancediscrete_xpm[] = {
/* columns rows colors chars-per-pixel */
"32 32 4 1",
". c Black",
"  c #FFFFFF",
"X c #FF0000",
"o c #C0C0C0",
/* pixels */
"                                ",
"                                ",
"                                ",
"                                ",
"  ............................  ",
"  ............................  ",
"  ..XXoo                ooXX..  ",
"  ..XXoo                ooXX..  ",
"  ..ooXX                XXoo..  ",
"  ..ooXX                XXoo..  ",
"  ..  XX                XX  ..  ",
"  ..  XX                XX  ..  ",
"  ..  ooXX            XXoo  ..  ",
"  ..  ooXX            XXoo  ..  ",
"  ..    ooXXXXXXXXXXXXoo    ..  ",
"  ..    ooXXXXXXXXXXXXoo    ..  ",
"  ..  ooXX            XXoo  ..  ",
"  ..  ooXX            XXoo  ..  ",
"  ..  XX                XX  ..  ",
"  ..  XX                XX  ..  ",
"  ..ooXX                XXoo..  ",
"  ..ooXX                XXoo..  ",
"  ..XXoo                ooXX..  ",
"  ..XXoo                ooXX..  ",
"  ............................  ",
"  ............................  ",
"                                ",
"                                ",
"                                ",
"                                ",
"                                ",
"                                "
};
