/* XPM */
static const char *division_xpm[] = {
/* columns rows colors chars-per-pixel */
"60 20 6 1",
"o c Black",
"  c #FFFFFF",
"X c #808080",
"+ c #008080",
". c #C0C0C0",
"O c #800080",
/* pixels */
"                                                            ",
"                                                            ",
"                                                            ",
"                       .X                                   ",
"                       oX           XooXXXXX.               ",
"                      Xoo       X    oX    XoX              ",
"                     .XXo      .X    o.    Xoo              ",
"                     X Xo      X.   .o     oX.              ",
"                    X. Xo      O    Xo   .XX                ",
"                    X  .o.     X    oX.XXXX                 ",
"                   X...Xo.    ..    o.    Xo                ",
"                  .X....oX    X    .o     .o.               ",
"                  X     oX    X    Xo     Xo                ",
"                 X.     oX   .+    oX    .oX                ",
"               .XoX   .Xoo.. X.  .XoX...Xo.                 ",
"               oooo   Xooooo X   oooooooo.                  ",
"                                                            ",
"                                                            ",
"                                                            ",
"                                                            "
};
