/* XPM */
static const char *DNN_xpm[] = {
"60 20 42 1",
" 	c None",
".	c #FFFFFF",
"+	c #000000",
"@	c #040404",
"#	c #1A1A1A",
"$	c #565656",
"%	c #CFCFCF",
"&	c #363636",
"*	c #FAFAFA",
"=	c #DBDBDB",
"-	c #868686",
";	c #101010",
">	c #CCCCCC",
",	c #474747",
"'	c #A8A8A8",
")	c #878787",
"!	c #4F4F4F",
"~	c #D3D3D3",
"{	c #252525",
"]	c #F9F9F9",
"^	c #DCDCDC",
"/	c #141414",
"(	c #666666",
"_	c #8E8E8E",
":	c #F6F6F6",
"<	c #E8E8E8",
"[	c #1F1F1F",
"}	c #EFEFEF",
"|	c #151515",
"1	c #858585",
"2	c #747474",
"3	c #515151",
"4	c #E0E0E0",
"5	c #FBFBFB",
"6	c #121212",
"7	c #CECECE",
"8	c #A4A4A4",
"9	c #5A5A5A",
"0	c #030303",
"a	c #191919",
"b	c #D1D1D1",
"c	c #FEFEFE",
"............................................................",
"............................................................",
"............................................................",
"............................................................",
"............................................................",
"..........++@#$%...+&....+..+&....+.........................",
"..........+.*=-;>..+,'...+..+,'...+.........................",
"..........+....)!..+~{]..+..+~{]..+.........................",
"..........+....^/..+.(_..+..+.(_..+.........................",
"..........+....:@..+.<[}.+..+.<[}.+.........................",
"..........+....^|..+..12.+..+..12.+.........................",
"..........+....-3..+..:{4+..+..:{4+.........................",
"..........+.5^-67..+...89+..+...89+.........................",
"..........++0a$bccc+c..c&+..+...c&+.......c.................",
"....................cc......cc............cc................",
"................cccc.cc......c.............c................",
"...................cc.c.....c.c...........c.c...............",
"....................c.c.....cccc..........cccc..............",
"....................c.c......c.c...........c.c..............",
"....................c.c......cccc..........cccc............."};
