/* XPM */
static const char *erosion_xpm[] = {
/* columns rows colors chars-per-pixel */
"60 20 4 1",
"o c Black",
"  c #FFFFFF",
"X c #808080",
". c #C0C0C0",
/* pixels */
"                                                            ",
"                                                            ",
"                   .X                   XooXXXXX.           ",
"                   oX                    XX    XoX          ",
"                  Xoo      .XXXX.        o.    Xoo          ",
"                 .XXo     X.  . .X.     .o.    XoX          ",
"                 X Xo    X.   .   X     Xo    .o.           ",
"                X. Xo   ..    .    X    XoXXXXX             ",
"                X  .o.  X     .    XX   oX   .oX            ",
"               X...Xo.  X    .X    Xo  .o.    Xo            ",
"              .X....oX  X....XX....Xo  .o     Xo.           ",
"              X     oX  X     .    Xo  XX     Xo            ",
"             X.     oX  X.    .    X   oX    .o.            ",
"           .XoX   .Xoo.. X    .   X. .XoX..XXo.             ",
"           oooo   Xooooo .X   .  X.  oooooooo.              ",
"                           XXXXXX.                          ",
"                            Xooo                            ",
"                                                            ",
"                                                            ",
"                                                            "
};
