/* XPM */
static const char *estimtansfo_xpm[] = {
/* columns rows colors chars-per-pixel */
"32 32 5 1",
". c Black",
"  c #FFFFFF",
"O c #800000",
"X c #008080",
"o c #FF0000",
/* pixels */
"                                ",
"                                ",
"                                ",
"                                ",
"                                ",
"                                ",
"                                ",
"                                ",
"                                ",
"                                ",
"                                ",
"                    .......     ",
"                   .  X  .      ",
"                  .......       ",
"                                ",
"                                ",
"               ............     ",
"              .           .     ",
"             . o XXXX O  .      ",
"            .           .       ",
"           .............        ",
"                                ",
"                                ",
"         ..................     ",
"        .                .      ",
"       .     XX   OO    .       ",
"      .  o  X  X  O    .        ",
"     . ooo XXXXXX     .         ",
"    .                .          ",
"   ..................           ",
"                                ",
"                                "
};
