/* XPM */
static const char *etlogique_xpm[] = {
/* columns rows colors chars-per-pixel */
"60 20 4 1",
"o c Black",
"  c #FFFFFF",
"X c #808080",
". c #C0C0C0",
/* pixels */
"                                                            ",
"                                                            ",
"                                                            ",
"                    .X               XXoXXXXXX.             ",
"                    oX                .o     XoX            ",
"                   Xoo                Xo     Xoo            ",
"                  .XXo       o        oX     ooX            ",
"                  X Xo      o o      .o.    Xo.             ",
"                 X. Xo      o o      .oXXXXXX               ",
"                 X  .o.     o o      Xo    .o.              ",
"                X...Xo.    oo oo     oX     Xo              ",
"               .X....oX    o   o    .o.     Xo.             ",
"               X     oX    o   o    Xo      oo              ",
"              X.     oX    o   o    Xo     Xo.              ",
"            .XoX   .Xoo.. oo   oo .XoX...XoX.               ",
"            oooo   Xooooo o     o ooooooooo                 ",
"                                                            ",
"                                                            ",
"                                                            ",
"                                                            "
};
