/* XPM */
static char * fermeture_xpm[] = {
"32 32 2 1",
" 	c #000000",
".	c #FFFFFF",
"................................",
"................................",
"................................",
"................................",
"................................",
"................................",
"................................",
"................................",
".....   ...............     ....",
".....   ...............     ....",
".....   ...............  ..  ...",
"....  .  ......   .....  ..  ...",
"....  .  .....     ....  ..  ...",
"....  .  .....     ....  ..  ...",
"...  ...  ....     ....     ....",
"...  ...  .....   .....  ..  ...",
"...       .............  ..  ...",
"...       .............  ..  ...",
"..  .....  ............     ....",
"..  .....  ............     ....",
"................................",
"................................",
"................................",
"................................",
"................................",
"................................",
"................................",
"................................",
"................................",
"................................",
"................................",
"................................"};
