/* XPM */
static const char *fermeture_xpm[] = {
/* columns rows colors chars-per-pixel */
"60 20 4 1",
"o c Black",
"  c #FFFFFF",
"X c #808080",
". c #C0C0C0",
/* pixels */
"                                                            ",
"                                                            ",
"                                                            ",
"                     .X              XooXXXXX.              ",
"                     oX               XX    XoX             ",
"                    Xoo               o.    Xoo             ",
"                   .XXo              .o.    XoX             ",
"                   X Xo              Xo    .o.              ",
"                  X. Xo    .XoX.     XoXXXXX                ",
"                  X  .o.  .oooooX    oX   .oX               ",
"                 X...Xo.  XooooooX  .o.    Xo               ",
"                .X....oX  oooooooo  .o     Xo.              ",
"                X     oX  oooooooo  XX     Xo               ",
"               X.     oX  .oooooX   oX    .o.               ",
"             .XoX   .Xoo.. XoooX  .XoX..XXo.                ",
"             oooo   Xooooo  ooo.  oooooooo.                 ",
"                                                            ",
"                                                            ",
"                                                            ",
"                                                            "
};
