/* XPM */
static const char *flou_xpm[] = {
/* columns rows colors chars-per-pixel */
"60 20 4 1",
"o c Black",
"  c #FFFFFF",
". c #808080",
"X c #C0C0C0",
/* pixels */
"                                                            ",
"                                                            ",
"                                                            ",
"                     .X               ..    o               ",
"                    Xoo              Xo.    o               ",
"                    ..oX             .o.    o               ",
"                   XX oo            XX.o    o               ",
"                   .  .o.           . .o    o               ",
"                  XX   oo          .  .o    o               ",
"                  .    Xo.        XX  .oX   o               ",
"                 .X     oo        .XXX.oX   o               ",
"                 .      Xo.      .XXXX.oX   o               ",
"                .X       .o      .     o.   o               ",
"                .        Xo.    .      o.   o               ",
"               .ooooooooooooX ..oX   X.ooXX o               ",
"               .ooooooooooooX oooo   .ooooo o               ",
"                                                            ",
"                                                            ",
"                                                            ",
"                                                            "
};
