/* XPM */
static const char *gradmorph_xpm[] = {
/* columns rows colors chars-per-pixel */
"60 20 4 1",
"X c Black",
". c #FFFFFF",
"o c #808080",
"  c #C0C0C0",
/* pixels */
"        ....................................................",
"XXXXXXX ....................................................",
"......o.....................................................",
".....  .....................................................",
".....o......................................................",
"....  .....................................................o",
"....o..................................................... o",
"...  ........................................ Xo..........o.",
"...o..........................................X ......... oo",
" .  ..........................................X..........o..",
"X.o...... oo  o  oo ....ooo ..oo oo.. o oo .. X oo......o ..",
"Xo ......o.X . X . o...o ..X.o.Xo.o   oo..X..oX..o .... o...",
"XX.......  X.. o..oo..oo...X  .X......X ..X .X ..X .. oXX ..",
"  ........oo..oo..X ..oo...X.. o......X.. X..X.. X..........",
"..........X ..X ..X.o.oo..oo..oo..... X..oo. X..oo  ........",
"..........X...X...oo ..o oo...o .....ooooo..oo..ooo.........",
".....................................X .....................",
".................................... X .....................",
"....................................XXX.....................",
"............................................................"
};
