/* XPM */
static const char *houghline_xpm[] = {
/* columns rows colors chars-per-pixel */
"32 32 2 1",
". c Black",
"  c #FFFFFF",
/* pixels */
"                                ",
" .  .  ..  .  .  ..  .  .       ",
" .  . .  . .  . .    .  .       ",
" .... .  . .  . .    ....       ",
" .  . .  . .  . . .. .  .       ",
" .  . .  . .  . .  . .  .       ",
" .  .  ..   ..   ..  .  .       ",
"                                ",
"                                ",
"                                ",
"                                ",
"                                ",
"                                ",
"                                ",
"                                ",
" ..........................     ",
"                                ",
"                  .           . ",
"                ..           .  ",
"               .            .   ",
"             ..            .    ",
"            .             .     ",
"          ..             .      ",
"        ..              .       ",
"       .               .        ",
"     ..               .         ",
"    .                .          ",
"  ..                .           ",
" .                 .            ",
"                  .             ",
"                 .              ",
"                                "
};
