/* XPM */
static const char *kmeans_xpm[] = {
"48 48 85 1",
" 	c None",
".	c #FFFFFF",
"+	c #000000",
"@	c #EAEAEA",
"#	c #363636",
"$	c #A5A5A5",
"%	c #838383",
"&	c #101010",
"*	c #171717",
"=	c #ADADAD",
"-	c #818181",
";	c #111111",
">	c #1A1A1A",
",	c #B6B6B6",
"'	c #4D4D4D",
")	c #0D0D0D",
"!	c #2D2D2D",
"~	c #C9C9C9",
"{	c #010101",
"]	c #212121",
"^	c #B9B9B9",
"/	c #828282",
"(	c #0F0F0F",
"_	c #1C1C1C",
":	c #B5B5B5",
"<	c #2B2B2B",
"[	c #070707",
"}	c #1F1F1F",
"|	c #9B9B9B",
"1	c #E2E2E2",
"2	c #313131",
"3	c #7D7D7D",
"4	c #F4F4F4",
"5	c #ABABAB",
"6	c #F3F3F3",
"7	c #272727",
"8	c #595959",
"9	c #A0A0A0",
"0	c #F8F8F8",
"a	c #2E2E2E",
"b	c #FDFDFD",
"c	c #C0C0C0",
"d	c #282828",
"e	c #AAAAAA",
"f	c #252525",
"g	c #121212",
"h	c #C1C1C1",
"i	c #FAFAFA",
"j	c #E1E1E1",
"k	c #636363",
"l	c #A4A4A4",
"m	c #F7F7F7",
"n	c #FCFCFC",
"o	c #030303",
"p	c #131313",
"q	c #020202",
"r	c #BABABA",
"s	c #060606",
"t	c #737373",
"u	c #323232",
"v	c #696969",
"w	c #BBBBBB",
"x	c #B2B2B2",
"y	c #222222",
"z	c #DDDDDD",
"A	c #E5E5E5",
"B	c #F2F2F2",
"C	c #DEDEDE",
"D	c #909090",
"E	c #3A3A3A",
"F	c #5B5B5B",
"G	c #6F6F6F",
"H	c #666666",
"I	c #DADADA",
"J	c #C5C5C5",
"K	c #A2A2A2",
"L	c #DFDFDF",
"M	c #EDEDED",
"N	c #5A5A5A",
"O	c #141414",
"P	c #191919",
"Q	c #9A9A9A",
"R	c #232323",
"S	c #080808",
"T	c #AFAFAF",
"................................................",
"................................................",
"................................................",
"................................................",
"................................................",
"................................................",
"................................................",
"................................................",
"................................................",
"................................................",
"................................................",
"................................................",
"..+.............................................",
"..+.............................................",
"..+.............................................",
"..+.@#$.+%&*=-;>,..@')!~...+{]^..+/(_:..=<[}|...",
"..+12,..+345[3657..890,a....bcd..+36ef..ghijk...",
"..+fl...+m.n+m.no..p+++q..r!s+o..+m.nq..tuvw....",
"..+xyz..+...+...+..gA....._xmB+..+...+...CDEF...",
"..+.e]C.+...+...+..FF@18..pcBG+..+...+..HIiJp...",
"..+..K]L+...+...+..MN;]e..9OP-+..+...+..QRS<T...",
"................................................",
"................................................",
"................................................",
"................................................",
"................................................",
"................................................",
"................................................",
"................................................",
"................................................",
"................................................",
"................................................",
"................................................",
"................................................",
"................................................",
"................................................",
"................................................",
"................................................",
"................................................",
"................................................",
"................................................",
"................................................",
"................................................",
"................................................",
"................................................",
"................................................",
"................................................",
"................................................"};
