/* XPM */
static const char *laplacien_xpm[] = {
/* columns rows colors chars-per-pixel */
"60 20 4 1",
"o c Black",
"  c #FFFFFF",
". c #808080",
"X c #C0C0C0",
/* pixels */
"                                                            ",
"                                                            ",
"                                                            ",
"                      .X               ..                   ",
"                     Xoo              Xo.                   ",
"                     ..oX             .o.                   ",
"                    XX oo            XX.o                   ",
"                    .  .o.           . .o                   ",
"                   XX   oo          .  .o                   ",
"                   .    Xo.        XX  .oX                  ",
"                  .X     oo        .XXX.oX                  ",
"                  .      Xo.      .XXXX.oX                  ",
"                 .X       .o      .     o.                  ",
"                 .        Xo.    .      o.                  ",
"                .ooooooooooooX ..oX   X.ooXX                ",
"                .ooooooooooooX oooo   .ooooo                ",
"                                                            ",
"                                                            ",
"                                                            ",
"                                                            "
};
