/* XPM */
static const char *linearpolar_xpm[] = {
/* columns rows colors chars-per-pixel */
"48 48 4 1",
". c Black",
"  c #FFFFFF",
"o c #808080",
"X c #C0C0C0",
/* pixels */
"                   .........                    ",
"                ...   XoX   ....                ",
"             ... .            . ..              ",
"            . oX .            . XX.             ",
"          ..X    X.          .X   X..           ",
"         . X      .          .      o.          ",
"        .X        .          .        .         ",
"       .X          .XoX XooX .         .        ",
"      .          XX..........XX         .       ",
"     .         X....        ...XX        .      ",
"    .X        ..    .       .  . o        .     ",
"    ...      .     o.      .    ..X      X.     ",
"   .X  .   X.      o.      .X     .     .. .    ",
"   .    .  .     X  ........  X    .X  .   .    ",
"  .X     ..     X ..o.    .... X    .o.     .   ",
"  .      . .    ..   .    .   ..o   ..X     .   ",
" .X     .   ..X.  X  X.   . X   .oX. .       .  ",
" .      .    o.  X   X.oX .      ..   .X     .  ",
" .     .    X. .oX    .  . X   X. .    .     .  ",
".o     .    .   ..X  Xo. .    X.   .   .      . ",
".      .    .  o  . X o.X. o .. X  .   .o     . ",
".     .    o.    X ..X .. XX.   X  .    .     . ",
".     .    .     X  o.X . ..  X     .   .     . ",
".     .    .      X   ....oX  o     .   .     . ",
"............................................... ",
".     .    .  X   X  X..o.oo  X     .   .     . ",
".     .    .     X  o. .o...X X     .   .     . ",
".     .    .     X ..XX. .  .   o  .    .     . ",
".X    .     .  o  . o .  X.  ..    .    .     . ",
" .     .    .   ..    .Xoo. X o.   .   .     .  ",
" .     .     . . X   X.   .   o . .    .     .  ",
" .     .X    X.      .    X. X   ..    .     .  ",
"  .     .   ..o.   o .    X.X   .X .  .     .   ",
"  .     .o .   o..   .XXXX .  ..X   ...     .   ",
"  .X     ..     X ....     ...       ..    .X   ",
"   .    . .       X .......X.X      .  .   .    ",
"    .  .   .       X.X    oX.      .    ...     ",
"    ...     .X     o.       X.    .       .     ",
"    ..       ..    .        o.  ..       .      ",
"      .        ..  .         ...        .X      ",
"       .         ...       ....        .X       ",
"        .         . .......  o.       .X        ",
"         .X       .           .      .          ",
"          ..     X.            .    .           ",
"            .X   X.           X.  ..            ",
"             ... .            X...              ",
"                ...X        ... .               ",
"                   .........    .               "
};
