/* XPM */
static const char *LisGau_xpm[] = {
/* columns rows colors chars-per-pixel */
"60 20 4 1",
"o c Black",
"  c #FFFFFF",
"X c #808080",
". c #C0C0C0",
/* pixels */
"                                                            ",
"                                                            ",
"                                      .X.               XXX ",
"                                      o.X              XX o ",
"                                       XX                .o ",
"                                      XoX              .ooo ",
"                                .XXX.  .           X    .   ",
"      X.                        X.o .             .X .      ",
"     .X.                 XXXXX.  XX        XXXXX.  o .      ",
"     X.X                         X.                o X      ",
"       X      .     X.X         X.XX               XXo      ",
"    X  X    X . X  o. ..                           .XX      ",
"    X  o    XXXXX  X  X.                           .X       ",
"    XXXo      o.   XXX.                                     ",
"   .   o    XX.XX                                           ",
" XoX  XooX         X.X.                                     ",
" ooo  oooX         oo.                                      ",
"                                                            ",
"                                                            ",
"                                                            "
};
