/* XPM */
static const char *LisMoy_xpm[] = {
/* columns rows colors chars-per-pixel */
"60 20 4 1",
"X c Black",
"  c #FFFFFF",
"o c #808080",
". c #C0C0C0",
/* pixels */
"                                                            ",
"                                                            ",
"                                                            ",
"                 .X                                         ",
"                 oX                                         ",
"                .XX                     ooooooooooo         ",
"                ooX.                    o        oX         ",
"               o..X.          .         o        oX         ",
"               o .X.          X         o        oX         ",
"              o   Xo       o. o .o      o        oX         ",
"             ..   Xo       .ooooo.      o        oX         ",
"             oooooXo         .Xo        o        oX         ",
"            ..    Xo       .ooooX.      o        oX         ",
"            o     oX       o. o .o      o        oX         ",
"           o.     oX          X         o        oX         ",
"         oXXo   .oXXo.        .         o        oX         ",
"         oXXX   .XXXXo                  o        oX         ",
"                                                            ",
"                                                            ",
"                                                            "
};
