/* XPM */
static const char *LisMed_xpm[] = {
/* columns rows colors chars-per-pixel */
"60 20 8 1",
"X c Black",
"  c #FFFFFF",
"O c #000080",
". c #800000",
"@ c #008080",
"o c #C0C0C0",
"+ c #808000",
"# c #800080",
/* pixels */
"                                                            ",
"                                                            ",
"                                                            ",
"                   .XXo  .Xo                    oO    +XO   ",
"                   oXXo  .Xo                   +Xo   oXXXo  ",
"                   oXXo                       oX@    +@.X@  ",
"@+XX@   .XXXo   oXXXXXo +XXo +XXXXo +XXXXX@   .Xo    # +XO  ",
"XooXO  .Xo .Xo  .XooXXo  .Xo +o oXO  .XooXXo  .O    o@ oXXo ",
"XooXXooXO  +X@ oXO oXXo  .Xo    oXO  .XooXXo oXO    +o  .X@ ",
"XooXXooXXXXXX@ oXO oXXo  .Xo +XXXXO  .XooXXo oXO    .XXXXXO ",
"XooXXooXO      oXO oXXo  .XooXO oXO  .XooXXo oXO   o@   oXXo",
"XooXXooXO      oXO oXXo  .Xo+XO oXO  .XooXXo oXO   +@    .X@",
"XooXXo .X@      .XooXXo  .XooXO oXO  .XooXXo  .O   .o    +XO",
"XXXXXO  .XXXXo  oXXXXXOo.XXXo.XXXXXO+XXXXXXO  .Xo .XXo  +XXX",
"                                              oX@           ",
"                                               oXo          ",
"                                                oO          ",
"                                                            ",
"                                                            ",
"                                                            "
};
