/* XPM */
static const char *multiplication_xpm[] = {
/* columns rows colors chars-per-pixel */
"60 20 6 1",
"o c Black",
"  c #FFFFFF",
"X c #808080",
"+ c #000080",
"O c #800000",
". c #C0C0C0",
/* pixels */
"                                                            ",
"                                                            ",
"                                                            ",
"                       .X          XXoXXXXXX.               ",
"                       oX           .o     XoX              ",
"                      Xoo           Xo     Xoo              ",
"                     .XXo           oX     ooX              ",
"                     X Xo          .o.    Xo.               ",
"                    X. Xo          .oXXXXXX                 ",
"                    X  .o.         Xo    .o.                ",
"                   X...Xo.         oX     Xo                ",
"                  .X....oX        .o.     Xo.               ",
"                  X     oX        Xo      oo                ",
"                 X.     oX        Xo     Xo.                ",
"               .XoX   .Xoo..  O+.XoX...XoX.                 ",
"               oooo   Xooooo  O+ooooooooo                   ",
"                                                            ",
"                                                            ",
"                                                            ",
"                                                            "
};
