/* XPM */
static const char *ouverture_xpm[] = {
/* columns rows colors chars-per-pixel */
"60 20 4 1",
"o c Black",
"  c #FFFFFF",
"X c #808080",
". c #C0C0C0",
/* pixels */
"                                                            ",
"                                                            ",
"                                                            ",
"                     .X                                     ",
"                     oX              XooXXXXX.              ",
"                    Xoo               oX    XoX             ",
"                   .XXo               o.    Xoo             ",
"                   X Xo              .o     oX.             ",
"                  X. Xo              Xo   .XX               ",
"                  X  .o.   .XXXX     oX.XXXX                ",
"                 X...Xo.  .X   .X.   o.    Xo               ",
"                .X....oX  X     Xo  .o     .o.              ",
"                X     oX  X     Xo  Xo     Xo               ",
"               X.     oX  XX   .X.  oX    .oX               ",
"             .XoX   .Xoo.. XXXXX  .XoX...Xo.                ",
"             oooo   Xooooo  Xoo   oooooooo.                 ",
"                                                            ",
"                                                            ",
"                                                            ",
"                                                            "
};
