/* XPM */
static const char *page_xpm[] = {
/* columns rows colors chars-per-pixel */
"32 32 3 1",
"X c Black",
"  c #FFFFFF",
". c #C0C0C0",
/* pixels */
"                     ...........",
" .................. .X..........",
" .................. ..X.........",
" .................. ...X........",
" .................. XXXXX.......",
" .......................X.......",
" ...    .     .   ......X.......",
" ....XXXX.XXXXX.XXX.....X.......",
" ...      .    .  . ....X.......",
" ....XXXXXX.XXXX.XX.X...X.......",
" ...    .      .    ....X.......",
" ....XXXX.XXXXXX.XXXX...X.......",
" ...         .   .......X.......",
" ....XXXXXXXXX.XXX......X.......",
" ...  .   .  .   .  ....X.......",
" ....XX.XXX.XX.XXX.XX...X.......",
" ... . .   .  .    .....X.......",
" ....X.X.XXX.XX.XXXX....X.......",
" ...    .    .      ....X.......",
" ....XXXX.XXXX.XXXXXX...X.......",
" ...  .    .  .   ......X.......",
" ....XX.XXXX.XX.XXX.....X.......",
" ...   .       .   .....X.......",
" ....XXX.XXXXXXX.XXX....X.......",
" ...            .  .....X.......",
" ....XXXXXXXXXXXX.XX....X.......",
" .......................X.......",
" .......................X.......",
" .......................X.......",
" XXXXXXXXXXXXXXXXXXXXXXXX.......",
"................................",
"................................"
};
