/* XPM */
static const char * panocomposition_xpm[] = {
"48 48 63 1",
" 	c None",
".	c #FFFFFF",
"+	c #000000",
"@	c #050505",
"#	c #2A2A2A",
"$	c #B6B6B6",
"%	c #FBFBFB",
"&	c #B1B1B1",
"*	c #191919",
"=	c #B4B4B4",
"-	c #010101",
";	c #212121",
">	c #B9B9B9",
",	c #828282",
"'	c #0F0F0F",
")	c #181818",
"!	c #A8A8A8",
"~	c #D0D0D0",
"{	c #353535",
"]	c #0A0A0A",
"^	c #363636",
"/	c #D3D3D3",
"(	c #292929",
"_	c #FDFDFD",
":	c #C0C0C0",
"<	c #282828",
"[	c #939393",
"}	c #F6F6F6",
"|	c #B7B7B7",
"1	c #1A1A1A",
"2	c #343434",
"3	c #929292",
"4	c #F4F4F4",
"5	c #969696",
"6	c #040404",
"7	c #030303",
"8	c #090909",
"9	c #0E0E0E",
"0	c #B5B5B5",
"a	c #B2B2B2",
"b	c #979797",
"c	c #F5F5F5",
"d	c #818181",
"e	c #CECECE",
"f	c #323232",
"g	c #333333",
"h	c #949494",
"i	c #F9F9F9",
"j	c #838383",
"k	c #0D0D0D",
"l	c #868686",
"m	c #464646",
"n	c #6E6E6E",
"o	c #5B5B5B",
"p	c #414141",
"q	c #101010",
"r	c #C3C3C3",
"s	c #C6C6C6",
"t	c #C4C4C4",
"u	c #080808",
"v	c #FAFAFA",
"w	c #313131",
"x	c #6D6D6D",
"................................................",
"................................................",
"................................................",
"................................................",
"................................................",
"................................................",
"................................................",
"................................................",
"................................................",
"...........++@#$................................",
"...........+.%&*................................",
"...........+.%=*...+-;>.+,')!.~{]^/.............",
"...........++@(=...._:<.+[}|1.2343^.............",
"...........+......5;6+7.+_..+.8}.4].............",
"...........+......904a+.+...+.2bc3{.............",
"...........+......,'*d+.+...+.e282~.............",
"................................................",
"................................................",
"................................................",
"................................................",
"................................................",
"................................................",
"..........ef7+..................................",
"..........ghi..jkl.+mn^o..+pn.jkl...............",
"..........8c...qrq.+s-tu..+rk.qrq...............",
"..........g5v..qrq.+.+.+..+rk.qrq...............",
"..........ew7+.jkl.+.+.+..+px.jkl...............",
"..........................+.....................",
"................................................",
"................................................",
"................................................",
"................................................",
"................................................",
"................................................",
"................................................",
"................................................",
"................................................",
"................................................",
"................................................",
"................................................",
"................................................",
"................................................",
"................................................",
"................................................",
"................................................",
"................................................",
"................................................",
"................................................"};
