/* XPM */
static char * panowraper_xpm[] = {
"48 48 89 1",
" 	c None",
".	c #FFFFFF",
"+	c #EAEAEA",
"@	c #161616",
"#	c #F8F8F8",
"$	c #505050",
"%	c #F7F7F7",
"&	c #151515",
"*	c #4F4F4F",
"=	c #AAAAAA",
"-	c #EDEDED",
";	c #020202",
">	c #EBEBEB",
",	c #A6A6A6",
"'	c #AFAFAF",
")	c #4C4C4C",
"!	c #B3B3B3",
"~	c #000000",
"{	c #B1B1B1",
"]	c #464646",
"^	c #8E8E8E",
"/	c #1C1C1C",
"(	c #010101",
"_	c #D9D9D9",
":	c #535353",
"<	c #121212",
"[	c #0E0E0E",
"}	c #515151",
"|	c #898989",
"1	c #6B6B6B",
"2	c #F9F9F9",
"3	c #FAFAFA",
"4	c #191919",
"5	c #E9E9E9",
"6	c #787878",
"7	c #767676",
"8	c #E4E4E4",
"9	c #181818",
"0	c #E5E5E5",
"a	c #2E2E2E",
"b	c #BEBEBE",
"c	c #F6F6F6",
"d	c #F0F0F0",
"e	c #6C6C6C",
"f	c #646464",
"g	c #444444",
"h	c #808080",
"i	c #6F6F6F",
"j	c #8F8F8F",
"k	c #3D3D3D",
"l	c #C6C6C6",
"m	c #3B3B3B",
"n	c #868686",
"o	c #E0E0E0",
"p	c #F1F1F1",
"q	c #D5D5D5",
"r	c #D4D4D4",
"s	c #232323",
"t	c #CFCFCF",
"u	c #303030",
"v	c #2C2C2C",
"w	c #292929",
"x	c #272727",
"y	c #FEFEFE",
"z	c #CBCBCB",
"A	c #424242",
"B	c #111111",
"C	c #030303",
"D	c #080808",
"E	c #999999",
"F	c #636363",
"G	c #606060",
"H	c #8C8C8C",
"I	c #2F2F2F",
"J	c #A1A1A1",
"K	c #FCFCFC",
"L	c #131313",
"M	c #A3A3A3",
"N	c #A0A0A0",
"O	c #0C0C0C",
"P	c #DDDDDD",
"Q	c #7E7E7E",
"R	c #050505",
"S	c #E3E3E3",
"T	c #DFDFDF",
"U	c #B5B5B5",
"V	c #1E1E1E",
"W	c #929292",
"X	c #696969",
"................................................",
"................................................",
"................................................",
"................................................",
"................................................",
"................................................",
"................................................",
"................................................",
"................................................",
"................................................",
"................................................",
"................................................",
"................................................",
"................................................",
"................................................",
"................................................",
"................................................",
"................................................",
".......+@#...$...%&+............................",
"........*=..-;>..,*.............................",
"........')..!~{..]'~^/(._:<[}>..~|@<12..........",
"........345.6]7.893~*0..abcdef..~g88gh..........",
".........ij.klm.ni.~o.......p/..~q..rs..........",
".........tu2v.w#xt.~y...zAB~~C..~%..%D..........",
"..........uEF.GHI..~....sJ-K-~..~q..qs..........",
"..........jLM.NOj..~....9'#P:~..~]88]Q..........",
"..........+RS.TR+..~....UxRVW~..~|@BX#..........",
"................................~...............",
"................................~...............",
"................................~...............",
"................................................",
"................................................",
"................................................",
"................................................",
"................................................",
"................................................",
"................................................",
"................................................",
"................................................",
"................................................",
"................................................",
"................................................",
"................................................",
"................................................",
"................................................",
"................................................",
"................................................",
"................................................"};
