/* XPM */
static const char * panoresize_xpm[] = {
"48 48 113 2",
"  	c None",
". 	c #FFFFFF",
"+ 	c #000000",
"@ 	c #131313",
"# 	c #4E4E4E",
"$ 	c #DEDEDE",
"% 	c #252525",
"& 	c #363636",
"* 	c #B3B3B3",
"= 	c #2B2B2B",
"- 	c #060606",
"; 	c #B4B4B4",
"> 	c #EBEBEB",
", 	c #777777",
"' 	c #3C3C3C",
") 	c #C5C5C5",
"! 	c #282828",
"~ 	c #C6C6C6",
"{ 	c #474747",
"] 	c #A8A8A8",
"^ 	c #D0D0D0",
"/ 	c #151515",
"( 	c #B2B2B2",
"_ 	c #F1F1F1",
": 	c #D1D1D1",
"< 	c #0B0B0B",
"[ 	c #666666",
"} 	c #878787",
"| 	c #868686",
"1 	c #676767",
"2 	c #D3D3D3",
"3 	c #F9F9F9",
"4 	c #565656",
"5 	c #959595",
"6 	c #949494",
"7 	c #575757",
"8 	c #3B3B3B",
"9 	c #F8F8F8",
"0 	c #E3E3E3",
"a 	c #8E8E8E",
"b 	c #202020",
"c 	c #E2E2E2",
"d 	c #212121",
"e 	c #121212",
"f 	c #4C4C4C",
"g 	c #DCDCDC",
"h 	c #A9A9A9",
"i 	c #454545",
"j 	c #444444",
"k 	c #AAAAAA",
"l 	c #E8E8E8",
"m 	c #1F1F1F",
"n 	c #EFEFEF",
"o 	c #070707",
"p 	c #080808",
"q 	c #4A4A4A",
"r 	c #A4A4A4",
"s 	c #FDFDFD",
"t 	c #A1A1A1",
"u 	c #858585",
"v 	c #747474",
"w 	c #040404",
"x 	c #F6F6F6",
"y 	c #E0E0E0",
"z 	c #555555",
"A 	c #8D8D8D",
"B 	c #5F5F5F",
"C 	c #626262",
"D 	c #5A5A5A",
"E 	c #CFCFCF",
"F 	c #2E2E2E",
"G 	c #BFBFBF",
"H 	c #C0C0C0",
"I 	c #2F2F2F",
"J 	c #FEFEFE",
"K 	c #B1B1B1",
"L 	c #2A2A2A",
"M 	c #050505",
"N 	c #272727",
"O 	c #B0B0B0",
"P 	c #FBFBFB",
"Q 	c #B6B6B6",
"R 	c #161616",
"S 	c #FCFCFC",
"T 	c #1D1D1D",
"U 	c #DADADA",
"V 	c #404040",
"W 	c #2D2D2D",
"X 	c #C9C9C9",
"Y 	c #848484",
"Z 	c #141414",
"` 	c #D5D5D5",
" .	c #3D3D3D",
"..	c #A0A0A0",
"+.	c #0D0D0D",
"@.	c #9B9B9B",
"#.	c #969696",
"$.	c #696969",
"%.	c #F4F4F4",
"&.	c #6C6C6C",
"*.	c #B9B9B9",
"=.	c #020202",
"-.	c #A5A5A5",
";.	c #383838",
">.	c #101010",
",.	c #7F7F7F",
"'.	c #303030",
").	c #F5F5F5",
"!.	c #CBCBCB",
"~.	c #0A0A0A",
"{.	c #0E0E0E",
"].	c #D2D2D2",
"^.	c #9A9A9A",
". . . . . . . . . . . . . . . . . . . . . . . . . . . . . . . . . . . . . . . . . . . . . . . . ",
". . . . . . . . . . . . . . . . . . . . . . . . . . . . . . . . . . . . . . . . . . . . . . . . ",
". . . . . . . . . . . . . . . . . . . . . . . . . . . . . . . . . . . . . . . . . . . . . . . . ",
". . . . . . . . . . . . . . . . . . . . . . . . . . . . . . . . . . . . . . . . . . . . . . . . ",
". . . . . . . . . . . . . . . . . . . . . . . . . . . . . . . . . . . . . . . . . . . . . . . . ",
". . . . . . . . . . . . . . . . . . . . . . . . . . . . . . . . . . . . . . . . . . . . . . . . ",
". . . . . . . . . . . . . . . . . . . . . . . . . . . . . . . . . . . . . . . . . . . . . . . . ",
". . . . . . . . . . . . . . . . . . . . . . . . . . . . . . . . . . . . . . . . . . . . . . . . ",
". . . . . . + + + @ # $ . . . % % . . . . + & . . . . + . . . * = - = ; . . . . . . . . . . . . ",
". . . . . . + . . > , ' . . ) ! ! ~ . . . + { ] . . . + . . ^ / ( _ * / : . . . . . . . . . . . ",
". . . . . . + . . . _ < . . [ } | 1 . . . + 2 % 3 . . + . . 4 5 . . . 6 7 . . . . . . . . . . . ",
". . . . . . + . . > , 8 . 9 @ 0 0 @ 9 . . + . [ a . . + . . b c . . . c d . . . . . . . . . . . ",
". . . . . . + + + e f g . h i . . j k . . + . l m n . + . . o 9 . . . 9 p . . . . . . . . . . . ",
". . . . . . + . . . . . . q r s s t q . . + . . u v . + . . b c . . . c d . . . . . . . . . . . ",
". . . . . . + . . . . . l w + + + + w l . + . . x % y + . . z 5 . . . 6 4 . . . . . . . . . . . ",
". . . . . . + . . . . . A B . . . . C a . + . . . r D + . . E / * _ ; / E . . . . . . . . . . . ",
". . . . . . + . . . . . F G . . . . H I . + . . . J & + . . . K L M L ( . . . . . . . . . . . . ",
". . . . . . . . . . . . . . . . . . . . . . . . . . . . . . . . . . . . . . . . . . . . . . . . ",
". . . . . . . . . . . . . . . . . . . . . . . . . . . . . . . . . . . . . . . . . . . . . . . . ",
". . . . . . . . . . . . . . . . . . . . . . . . . . . . . . . . . . . . . . . . . . . . . . . . ",
". . . . . . . . . . . . . . . . . . . . . . . . . . . . . . . . . . . . . . . . . . . . . . . . ",
". . . . . . . . . . . . . . . . . . . . . . . . . . . . . . . . . . . . . . . . . . . . . . . . ",
". . . . . . . . . . . . . . . . . . . . . . . . . . . . . . . . . . . . . . . . . . . . . . . . ",
". . . . . . . . . . . . . . . . . . . . . . . . . . . . . . . . . . . . . . . . . . . . . . . . ",
". . . . . . . . . . . . . . . . . . . . . . . . . . . . . . . . . . . . . . . . . . . . . . . . ",
". . . . . . . . . . . . . . . . . . . . . . . . . . . . . . . . . . . . . . . . . . . . . . . . ",
". . . . . . . . . . . . . . . . . . . . . . . . . . . . . . . . . . . . . . . . . . . . . . . . ",
". . . . . . . . . . . . . . . . . . . . . . . . . . . . . . . . . . . . . . . . . . . . . . . . ",
". . . . . . . . . . . . . . . . . . . . . . . . . . . . . . . . . . . . . . . . . . . . . . . . ",
". . . . . . . . . . . . . . . . . . . . . . . . . . . . . . . . . . . . . . . . . . . . . . . . ",
". . . . . . . . . . . . . . . . . . . . . . . . . . . . . . . . . . . . . . . . . . . . . . . . ",
". . . . . . . . . . . . . . . . . . . . . . . . . . . . . . . . . . . . . . . . . . . . . . . . ",
". . . . . . . . . . . . . . . . . . . . . . . . . + . . . . . . . . . . . . . . . . . . . . . . ",
". . . . . . . + + M N O . . . . . . . . . . . . . . . . . . . . . . . . . . . . . . . . . . . . ",
". . . . . . . + . P Q R . . . . . . . . . . . . . . . . . . . . . . . . . . . . . . . . . . . . ",
". . . . . . . + . S Q T . . U V < W X . Y Z + + . + . + + + + . U V < W X . . . . . . . . . . . ",
". . . . . . . + + + I ` . .  ...9 Q F . +.@.x . . + . . . #.$..  ...9 Q F . . . . . . . . . . . ",
". . . . . . . + . %.&.*.. . < + + + =.. -.;.>.,.. + . . ] W x . < + + + =.. . . . . . . . . . . ",
". . . . . . . + . . x '.n . ' ..).. . . . . !.~.. + . *.{.].. . ' ..).. . . . . . . . . . . . . ",
". . . . . . . + . . . ^.&.. $ q {.+ + . + + Z u . + . < + + + . $ q {.+ + . . . . . . . . . . . ",
". . . . . . . . . . . . . . . . . . . . . . . . . . . . . . . . . . . . . . . . . . . . . . . . ",
". . . . . . . . . . . . . . . . . . . . . . . . . . . . . . . . . . . . . . . . . . . . . . . . ",
". . . . . . . . . . . . . . . . . . . . . . . . . . . . . . . . . . . . . . . . . . . . . . . . ",
". . . . . . . . . . . . . . . . . . . . . . . . . . . . . . . . . . . . . . . . . . . . . . . . ",
". . . . . . . . . . . . . . . . . . . . . . . . . . . . . . . . . . . . . . . . . . . . . . . . ",
". . . . . . . . . . . . . . . . . . . . . . . . . . . . . . . . . . . . . . . . . . . . . . . . ",
". . . . . . . . . . . . . . . . . . . . . . . . . . . . . . . . . . . . . . . . . . . . . . . . ",
". . . . . . . . . . . . . . . . . . . . . . . . . . . . . . . . . . . . . . . . . . . . . . . . "};
