/* XPM */
static  const char * panocorrectexpo_xpm[] = {
"48 48 63 1",
" 	c None",
".	c #FFFFFF",
"+	c #000000",
"@	c #D3D3D3",
"#	c #383838",
"$	c #060606",
"%	c #D0D0D0",
"&	c #353535",
"*	c #0A0A0A",
"=	c #363636",
"-	c #6D6D6D",
";	c #050505",
">	c #DADADA",
",	c #404040",
"'	c #0B0B0B",
")	c #2D2D2D",
"!	c #C9C9C9",
"~	c #909090",
"{	c #F8F8F8",
"]	c #343434",
"^	c #929292",
"/	c #F4F4F4",
"(	c #A1A1A1",
"_	c #FCFCFC",
":	c #3D3D3D",
"<	c #A0A0A0",
"[	c #B6B6B6",
"}	c #2E2E2E",
"|	c #090909",
"1	c #F5F5F5",
"2	c #F6F6F6",
"3	c #FBFBFB",
"4	c #020202",
"5	c #979797",
"6	c #3C3C3C",
"7	c #E6E6E6",
"8	c #D2D2D2",
"9	c #040404",
"0	c #CECECE",
"a	c #DEDEDE",
"b	c #4A4A4A",
"c	c #0E0E0E",
"d	c #737373",
"e	c #0C0C0C",
"f	c #686868",
"g	c #AAAAAA",
"h	c #A9A9A9",
"i	c #777777",
"j	c #2C2C2C",
"k	c #CDCDCD",
"l	c #FAFAFA",
"m	c #454545",
"n	c #949494",
"o	c #959595",
"p	c #BCBCBC",
"q	c #C5C5C5",
"r	c #3B3B3B",
"s	c #B8B8B8",
"t	c #F7F7F7",
"u	c #626262",
"v	c #BABABA",
"w	c #B5B5B5",
"x	c #646464",
"................................................",
"................................................",
"................................................",
"................................................",
"................................................",
"................................................",
"................................................",
"................................................",
"................................................",
"................................................",
"................................................",
"................................................",
"................................................",
".....................................+..........",
".....................................+..........",
".......@#$+.%&*=@.+-;.+-;.>,')!.@#$+++++........",
".......&~{..]^/^=.+(_.+(_.:<{[}.&~{..+..........",
".......|1...|2./*.+3..+3..'+++4.|1...+..........",
".......=~{..]51^&.+...+...6<1...=~{..|7.........",
".......8=9+.0]|]%.+...+...abc++.8=9+.de+........",
"................................................",
"................................................",
"................................................",
"................................................",
"................................................",
"................................................",
".......>,')!.fg.hf.+i'jk.%&*=@..................",
".......:<{[}.lmnml.+o1^].]^/^=..................",
".......'+++4..p+q..+2.1|.|2./*..................",
".......6<1.../rs,t.+52o].]51^&..................",
".......abc++.uv.wx.+i*jk.0]|]%..................",
"...................+............................",
"...................+............................",
"................................................",
"................................................",
"................................................",
"................................................",
"................................................",
"................................................",
"................................................",
"................................................",
"................................................",
"................................................",
"................................................",
"................................................",
"................................................",
"................................................",
"................................................"};
