/* XPM */
static const char *rgbluminance_xpm[] = {
/* columns rows colors chars-per-pixel */
"16 16 5 1",
"X c Black",
"  c #FFFFFF",
". c #FF0000",
"O c #0000FF",
"o c #00FF00",
/* pixels */
" ...            ",
" . .            ",
" ..  X          ",
" . .  X    X    ",
"       X   X    ",
" ooo    X  X    ",
" o       X X    ",
" o o XXXXX X    ",
" o o     X X    ",
" ooo    X  XXXX ",
"       X        ",
" OOO   X        ",
" O O  X         ",
" OO  X          ",
" O O            ",
" OOO            "
};
