/* XPM */
static const char *separationplan_xpm[] = {
/* columns rows colors chars-per-pixel */
"16 16 5 1",
"X c Black",
"  c #FFFFFF",
". c #FF0000",
"O c #0000FF",
"o c #00FF00",
/* pixels */
"           ...  ",
"           . .  ",
"        X  ..   ",
"       XXX . .  ",
"XXXXXXX X       ",
"X     X    ooo  ",
"X     X    o    ",
"X     X X  o o  ",
"X     XXXX o o  ",
"X     X X  ooo  ",
"X     X         ",
"X     X    OOO  ",
"X     XX X O O  ",
"XXXXXXX XX OO   ",
"         X O O  ",
"           OOO  "
};
