/* XPM */
static const char *seuillage_xpm[] = {
/* columns rows colors chars-per-pixel */
"32 32 3 1",
"  c Black",
". c #FFFFFF",
"X c #800000",
/* pixels */
"  ..............................",
"  ..............................",
"  ..............................",
"  ..............................",
"  ..............................",
"  ..............................",
"  ..............................",
"  .............XX...............",
"  .............XX...............",
"  ............XXXX..............",
"  ...........X.XX.X.............",
"  ..........X..XX..X....  ......",
"  .............XX.......  ......",
"  .............XX.......  ......",
"  .............XX.......  ......",
"  .....     ...XX.......   .....",
"  .....     ...XX.......   .....",
"  .....     ...XX.......   .....",
"  .....     ...XX....      .....",
"  .....     ...XX....      .....",
"  .....     ...XX....      .....",
"  .....     ...XX....      .....",
"  ...         .XX..        .....",
"  ...         .XX..        .....",
"                             ...",
"                             ...",
"                             ...",
"                               .",
"                               .",
"                               .",
"                               .",
"................................"
};
