/* XPM */
static const char *seuillageada_xpm[] = {
/* columns rows colors chars-per-pixel */
"32 32 4 1",
"  c Black",
". c #FFFFFF",
"o c #800000",
"X c #008080",
/* pixels */
"  ..............................",
"  ..............................",
"  ..............................",
"  ..............................",
"  .........X.........X..........",
"  ........X...........X.........",
"  .......XXXXXXXXXXXXXXX........",
"  ........X...........X.........",
"  .........X...oo....X..........",
"  ............oooo..............",
"  ...........o.oo.o.............",
"  ..........o..oo..o....  ......",
"  .............oo.......  ......",
"  .............oo.......  ......",
"  .............oo.......  ......",
"  .....     ...oo.......   .....",
"  .....     ...oo.......   .....",
"  .....     ...oo.......   .....",
"  .....     ...oo....      .....",
"  .....     ...oo....      .....",
"  .....     ...oo....      .....",
"  .....     ...oo....      .....",
"  ...         .oo..        .....",
"  ...         .oo..        .....",
"                             ...",
"                             ...",
"                             ...",
"                               .",
"                               .",
"                               .",
"                               .",
"................................"
};
