/* XPM */
static const char * Sift_xpm[] = {
"48 48 57 1",
" 	c None",
".	c #FFFFFF",
"+	c #C9C9C9",
"@	c #4E4E4E",
"#	c #1D1D1D",
"$	c #060606",
"%	c #1F1F1F",
"&	c #5F5F5F",
"*	c #C4C4C4",
"=	c #AEAEAE",
"-	c #020202",
";	c #000000",
">	c #2B2B2B",
",	c #474747",
"'	c #D0D0D0",
")	c #F7F7F7",
"!	c #EAEAEA",
"~	c #A9A9A9",
"{	c #3F3F3F",
"]	c #070707",
"^	c #E8E8E8",
"/	c #292929",
"(	c #828282",
"_	c #EBEBEB",
":	c #A8A8A8",
"<	c #232323",
"[	c #575757",
"}	c #A4A4A4",
"|	c #FAFAFA",
"1	c #BEBEBE",
"2	c #4D4D4D",
"3	c #0B0B0B",
"4	c #303030",
"5	c #FCFCFC",
"6	c #D5D5D5",
"7	c #959595",
"8	c #202020",
"9	c #676767",
"0	c #D6D6D6",
"a	c #E5E5E5",
"b	c #363636",
"c	c #969696",
"d	c #D7D7D7",
"e	c #F8F8F8",
"f	c #F3F3F3",
"g	c #C6C6C6",
"h	c #3E3E3E",
"i	c #2A2A2A",
"j	c #ACACAC",
"k	c #CBCBCB",
"l	c #6F6F6F",
"m	c #2E2E2E",
"n	c #090909",
"o	c #050505",
"p	c #1B1B1B",
"q	c #535353",
"r	c #C3C3C3",
"................................................",
"................................................",
"................................................",
"................................................",
"................................................",
"................................................",
"................................................",
"................................................",
"................................................",
"................................................",
"................................................",
"................................................",
"................................................",
"................................................",
"................................................",
"................................................",
"................................................",
"................................................",
"................................................",
"................................................",
"................................................",
"......+@#$%&*...................................",
".....=-;;;;;;...................................",
".....>;,')!~{...................................",
".....];^........;..;;;;;;.;;;;;;;;;.............",
"...../;(_.......;..;..........;.................",
".....:;;;<[}|...;..;..........;.................",
"......123;;;4_..;..;..........;.................",
"........5678;9..;..;;;;;;.....;.................",
"...........0;#..;..;..........;.................",
"...........a;$..;..;..........;.................",
".....bcdefgh;i..;..;..........;.................",
".....;;;;;;;-j..;..;..........;.................",
".....klmnopqr...;..;..........;.................",
"................................................",
"................................................",
"................................................",
"................................................",
"................................................",
"................................................",
"................................................",
"................................................",
"................................................",
"................................................",
"................................................",
"................................................",
"................................................",
"................................................"};
