/* XPM */
static const char *soustraction_xpm[] = {
/* columns rows colors chars-per-pixel */
"60 20 4 1",
"o c Black",
"  c #FFFFFF",
"X c #808080",
". c #C0C0C0",
/* pixels */
"                                                            ",
"                                                            ",
"                                                            ",
"                      .X                                    ",
"                      oX            XooXXXXX.               ",
"                     Xoo             oX    XoX              ",
"                    .XXo             o.    Xoo              ",
"                    X Xo            .o     oX.              ",
"                   X. Xo            Xo   .XX                ",
"                   X  .o.           oX.XXXX                 ",
"                  X...Xo.           o.    Xo                ",
"                 .X....oX          .o     .o.               ",
"                 X     oX   .oooo  Xo     Xo                ",
"                X.     oX          oX    .oX                ",
"              .XoX   .Xoo..      .XoX...Xo.                 ",
"              oooo   Xooooo      oooooooo.                  ",
"                                                            ",
"                                                            ",
"                                                            ",
"                                                            "
};
