/* XPM */
static const char *squelette_xpm[] = {
/* columns rows colors chars-per-pixel */
"32 32 4 1",
"  c #FFFFFF",
"X c #808080",
". c #800000",
"o c #808000",
/* pixels */
"                                ",
"                                ",
"                                ",
"                                ",
"                      .      .  ",
"                       .    .   ",
"      X  X              .  .    ",
"      X  X               ..     ",
"       XXX               .      ",
"        X                .      ",
"        X                .      ",
"        X                .      ",
"        X                .      ",
"        X                .      ",
"        XX              ...     ",
"        X XX           .   .    ",
"       X   X          .     .   ",
"      XX   X                ..  ",
"      X                         ",
"      X                         ",
"                                ",
"                                ",
"                                ",
"                                ",
"                                ",
"                 o       o      ",
"          oooooooooooooooooo    ",
"          o            o        ",
"                       o        ",
"                                ",
"                                ",
"                                "
};
