/* XPM */
static const char *superpixelseeds_xpm[] = {
"48 48 129 2",
"  	c None",
". 	c #FFFFFF",
"+ 	c #9F9F9F",
"@ 	c #323232",
"# 	c #0C0C0C",
"$ 	c #111111",
"% 	c #4F4F4F",
"& 	c #BCBCBC",
"* 	c #000000",
"= 	c #858585",
"- 	c #373737",
"; 	c #C9C9C9",
"> 	c #F5F5F5",
", 	c #D4D4D4",
"' 	c #535353",
") 	c #1A1A1A",
"! 	c #D9D9D9",
"~ 	c #7F7F7F",
"{ 	c #0A0A0A",
"] 	c #F3F3F3",
"^ 	c #C0C0C0",
"/ 	c #353535",
"( 	c #070707",
"_ 	c #1F1F1F",
": 	c #9C9C9C",
"< 	c #D3D3D3",
"[ 	c #484848",
"} 	c #131313",
"| 	c #686868",
"1 	c #F2F2F2",
"2 	c #757575",
"3 	c #242424",
"4 	c #090909",
"5 	c #0E0E0E",
"6 	c #444444",
"7 	c #B3B3B3",
"8 	c #3F3F3F",
"9 	c #909090",
"0 	c #D8D8D8",
"a 	c #141414",
"b 	c #A6A6A6",
"c 	c #F1F1F1",
"d 	c #212121",
"e 	c #BFBFBF",
"f 	c #DCDCDC",
"g 	c #171717",
"h 	c #E7E7E7",
"i 	c #8E8E8E",
"j 	c #595959",
"k 	c #515151",
"l 	c #717171",
"m 	c #E0E0E0",
"n 	c #FAFAFA",
"o 	c #EDEDED",
"p 	c #464646",
"q 	c #D5D5D5",
"r 	c #272727",
"s 	c #313131",
"t 	c #777777",
"u 	c #A2A2A2",
"v 	c #5D5D5D",
"w 	c #8C8C8C",
"x 	c #B0B0B0",
"y 	c #4A4A4A",
"z 	c #5C5C5C",
"A 	c #828282",
"B 	c #7E7E7E",
"C 	c #FBFBFB",
"D 	c #121212",
"E 	c #232323",
"F 	c #DADADA",
"G 	c #EEEEEE",
"H 	c #1B1B1B",
"I 	c #DDDDDD",
"J 	c #363636",
"K 	c #656565",
"L 	c #E4E4E4",
"M 	c #F7F7F7",
"N 	c #666666",
"O 	c #060606",
"P 	c #020202",
"Q 	c #030303",
"R 	c #F6F6F6",
"S 	c #DEDEDE",
"T 	c #505050",
"U 	c #080808",
"V 	c #282828",
"W 	c #606060",
"X 	c #FEFEFE",
"Y 	c #0D0D0D",
"Z 	c #E6E6E6",
"` 	c #F8F8F8",
" .	c #D0D0D0",
"..	c #999999",
"+.	c #626262",
"@.	c #6D6D6D",
"#.	c #FCFCFC",
"$.	c #555555",
"%.	c #979797",
"&.	c #838383",
"*.	c #808080",
"=.	c #ECECEC",
"-.	c #0B0B0B",
";.	c #AFAFAF",
">.	c #F0F0F0",
",.	c #BDBDBD",
"'.	c #2E2E2E",
").	c #878787",
"!.	c #191919",
"~.	c #A0A0A0",
"{.	c #F4F4F4",
"].	c #DBDBDB",
"^.	c #929292",
"/.	c #E8E8E8",
"(.	c #919191",
"_.	c #5A5A5A",
":.	c #3D3D3D",
"<.	c #A3A3A3",
"[.	c #E3E3E3",
"}.	c #7A7A7A",
"|.	c #494949",
"1.	c #C5C5C5",
"2.	c #616161",
"3.	c #040404",
"4.	c #393939",
"5.	c #9E9E9E",
"6.	c #CFCFCF",
"7.	c #414141",
"8.	c #D1D1D1",
". . . . . . . . . . . . . . . . . . . . . . . . . . . . . . . . . . . . . . . . . . . . . . . . ",
". . . . . . . . . . . . . . . . . . . . . . . . . . . . . . . . . . . . . . . . . . . . . . . . ",
". . . . . . . . . . . . . . . . . . . . . . . . . . . . . . . . . . . . . . . . . . . . . . . . ",
". . . . . . . . . . . . . . . . . . . . . . . . . . . . . . . . . . . . . . . . . . . . . . . . ",
". . . . . . . . . . . . . . . . . . . . . . . . . . . . . . . . . . . . . . . . . . . . . . . . ",
". . . . . . . . . . . . . . . . . . . . . . . . . . . . . . . . . . . . . . . . . . . . . . . . ",
". . . . . . . . . . . . . . . . . . . . . . . . . . . . . . . . . . . . . . . . . . . . . . . . ",
". . . . . . . . . . . . . . . . . . . . . . . . . . . . . . . . . . . . . . . . . . . . . . . . ",
". . . . . . . . . . . . . . . . . . . . . . . . . . . . . . . . . . . . . . . . . . . . . . . . ",
". . . . . . . . . . . . . . . . . . . . . . . . . . . . . . . . . . . . . . . . . . . . . . . . ",
". . . . . . . . . . . . . . . . . . . . . . . . . . . . . . . . . . . . . . . . . . . . . . . . ",
". . . . . . . . . . . . . . . . . . . . . . . . . . . . . . . . . . . . . . . . . . . . . . . . ",
". . . . . . . . . . . . . . . . . . . . . . . . . . . . . . . . . . . . . . . . . . . . . . . . ",
". . . . . . . . . . . . . . . . . . . . . . . . . . . . . . . . . . . . . . . . . . . . . . . . ",
". . . . . . . . . . . . . . . . . . . . . . . . . . . . . . . . . . . . . . . . . . . . . . . . ",
". . . + @ # $ % & . . . . . . . . . . . . . . . . . . . . . . . . . . . . * . . . . . . . . . . ",
". . = - ; > , ' * . . . . . . . . . . . . . . . . . . . . . . . . . . . . * . . . . . . . . . . ",
". . ) ! . . . . ~ . . . . . . . . . . . . . . . . . . . . . . . . . . . . * . . . . . . . . . . ",
". . { ] . . . . . . . . . ^ / ( _ : . . . . ^ / ( _ : . . . . < [ { } | > * . . 1 2 3 4 5 6 7 . ",
". . 8 9 . . . . . . . . 0 a b c ; d e . . 0 a b c ; d e . . f g 9 h h i j * . . k l m n o 7 p . ",
". . q r s t u m . . . . v w . . . x y . . v w . . . x y . . z A . . . . B * . . # c . . . . . . ",
". . . C & B ' D p h . . E F . . . G H . . E F . . . G H . . g I . . . . f * . . J K L . . . . . ",
". . . . . . . M N % . . O * * * * * P . . O * * * * * P . . Q M . . . . R * . . S T U V W x X . ",
". . . . . . . . G Y . . a Z . . . . . . . a Z . . . . . . . g I . . . . f * . . . . `  .../ +.. ",
". . @.#.. . . . , ) . . $.%.. . . . . . . $.%.. . . . . . . z &.. . . . *.* . . . . . . . =.-.. ",
". . * s ;.>.c ,.'.).. . , !.~.=.{.& y . . , !.~.=.{.& y . . ].g ^././.(._.* . . :.<.[.C h }.|.. ",
". . 1.2._ 3.Y 4.5.. . . . 6.|.Y 4 7.& . . . 6.|.Y 4 7.& . . . 8.p { D K > * . . e ' } U 3 t >.. ",
". . . . . . . . . . . . . . . . . . . . . . . . . . . . . . . . . . . . . . . . . . . . . . . . ",
". . . . . . . . . . . . . . . . . . . . . . . . . . . . . . . . . . . . . . . . . . . . . . . . ",
". . . . . . . . . . . . . . . . . . . . . . . . . . . . . . . . . . . . . . . . . . . . . . . . ",
". . . . . . . . . . . . . . . . . . . . . . . . . . . . . . . . . . . . . . . . . . . . . . . . ",
". . . . . . . . . . . . . . . . . . . . . . . . . . . . . . . . . . . . . . . . . . . . . . . . ",
". . . . . . . . . . . . . . . . . . . . . . . . . . . . . . . . . . . . . . . . . . . . . . . . ",
". . . . . . . . . . . . . . . . . . . . . . . . . . . . . . . . . . . . . . . . . . . . . . . . ",
". . . . . . . . . . . . . . . . . . . . . . . . . . . . . . . . . . . . . . . . . . . . . . . . ",
". . . . . . . . . . . . . . . . . . . . . . . . . . . . . . . . . . . . . . . . . . . . . . . . ",
". . . . . . . . . . . . . . . . . . . . . . . . . . . . . . . . . . . . . . . . . . . . . . . . ",
". . . . . . . . . . . . . . . . . . . . . . . . . . . . . . . . . . . . . . . . . . . . . . . . ",
". . . . . . . . . . . . . . . . . . . . . . . . . . . . . . . . . . . . . . . . . . . . . . . . ",
". . . . . . . . . . . . . . . . . . . . . . . . . . . . . . . . . . . . . . . . . . . . . . . . ",
". . . . . . . . . . . . . . . . . . . . . . . . . . . . . . . . . . . . . . . . . . . . . . . . ",
". . . . . . . . . . . . . . . . . . . . . . . . . . . . . . . . . . . . . . . . . . . . . . . . ",
". . . . . . . . . . . . . . . . . . . . . . . . . . . . . . . . . . . . . . . . . . . . . . . . ",
". . . . . . . . . . . . . . . . . . . . . . . . . . . . . . . . . . . . . . . . . . . . . . . . ",
". . . . . . . . . . . . . . . . . . . . . . . . . . . . . . . . . . . . . . . . . . . . . . . . ",
". . . . . . . . . . . . . . . . . . . . . . . . . . . . . . . . . . . . . . . . . . . . . . . . ",
". . . . . . . . . . . . . . . . . . . . . . . . . . . . . . . . . . . . . . . . . . . . . . . . ",
". . . . . . . . . . . . . . . . . . . . . . . . . . . . . . . . . . . . . . . . . . . . . . . . "};
