/* XPM */
static const char *superpixelslc_xpm[] = {
"48 48 89 1",
" 	c None",
".	c #FFFFFF",
"+	c #C9C9C9",
"@	c #4E4E4E",
"#	c #1D1D1D",
"$	c #060606",
"%	c #1F1F1F",
"&	c #5F5F5F",
"*	c #C4C4C4",
"=	c #000000",
"-	c #FBFBFB",
";	c #A0A0A0",
">	c #484848",
",	c #171717",
"'	c #050505",
")	c #0B0B0B",
"!	c #2C2C2C",
"~	c #686868",
"{	c #C7C7C7",
"]	c #AEAEAE",
"^	c #020202",
"/	c #E6E6E6",
"(	c #363636",
"_	c #2B2B2B",
":	c #474747",
"<	c #D0D0D0",
"[	c #F7F7F7",
"}	c #EAEAEA",
"|	c #A9A9A9",
"1	c #3F3F3F",
"2	c #FAFAFA",
"3	c #333333",
"4	c #1C1C1C",
"5	c #989898",
"6	c #DFDFDF",
"7	c #F5F5F5",
"8	c #D6D6D6",
"9	c #9A9A9A",
"0	c #3A3A3A",
"a	c #070707",
"b	c #E8E8E8",
"c	c #202020",
"d	c #E9E9E9",
"e	c #292929",
"f	c #828282",
"g	c #EBEBEB",
"h	c #424242",
"i	c #A2A2A2",
"j	c #A8A8A8",
"k	c #232323",
"l	c #575757",
"m	c #A4A4A4",
"n	c #131313",
"o	c #BEBEBE",
"p	c #4D4D4D",
"q	c #303030",
"r	c #040404",
"s	c #FCFCFC",
"t	c #D5D5D5",
"u	c #959595",
"v	c #676767",
"w	c #414141",
"x	c #E5E5E5",
"y	c #999999",
"z	c #212121",
"A	c #969696",
"B	c #D7D7D7",
"C	c #F8F8F8",
"D	c #F3F3F3",
"E	c #C6C6C6",
"F	c #3E3E3E",
"G	c #2A2A2A",
"H	c #F9F9F9",
"I	c #313131",
"J	c #E0E0E0",
"K	c #F6F6F6",
"L	c #ACACAC",
"M	c #E4E4E4",
"N	c #CBCBCB",
"O	c #6F6F6F",
"P	c #2E2E2E",
"Q	c #090909",
"R	c #1B1B1B",
"S	c #535353",
"T	c #C3C3C3",
"U	c #9E9E9E",
"V	c #464646",
"W	c #161616",
"X	c #696969",
"................................................",
"................................................",
"................................................",
"................................................",
"................................................",
"................................................",
"................................................",
"................................................",
"................................................",
"................................................",
"................................................",
"................................................",
"...+@#$%&*....==.........-;>,')!~{..............",
"..]^======....==......../(========..............",
".._=:<[}|1....==.......23=45627890..............",
"..a=b.........==.......9=cd.....................",
"..e=fg........==.......h=i......................",
"..j===klm2....==.......n=b......................",
"...op)===qg...==.......r=-......................",
".....stuc=v...==.......n=b......................",
"........8=#...==.......w=i......................",
"........x=$...==.......y=z}.....................",
"..(ABCDEF=G...==.......HI=#yJ2KB90..............",
"..=======^L...========..M3========..............",
"..NOPQ'RST....========...2UVWr)!X{..............",
"................................................",
"................................................",
"................................................",
"................................................",
"................................................",
"................................................",
"................................................",
"................................................",
"................................................",
"................................................",
"................................................",
"................................................",
"................................................",
"................................................",
"................................................",
"................................................",
"................................................",
"................................................",
"................................................",
"................................................",
"................................................",
"................................................",
"................................................"};
