/* XPM */
static const char * Surf_xpm[] = {
"48 48 83 1",
" 	c None",
".	c #FFFFFF",
"+	c #F8F8F8",
"@	c #767676",
"#	c #202020",
"$	c #040404",
"%	c #000000",
"&	c #C9C9C9",
"*	c #4E4E4E",
"=	c #1D1D1D",
"-	c #060606",
";	c #1F1F1F",
">	c #5F5F5F",
",	c #C4C4C4",
"'	c #7B7B7B",
")	c #AEAEAE",
"!	c #020202",
"~	c #222222",
"{	c #ADADAD",
"]	c #F9F9F9",
"^	c #2B2B2B",
"/	c #474747",
"(	c #D0D0D0",
"_	c #F7F7F7",
":	c #EAEAEA",
"<	c #A9A9A9",
"[	c #3F3F3F",
"}	c #030303",
"|	c #FEFEFE",
"1	c #070707",
"2	c #E8E8E8",
"3	c #F6F6F6",
"4	c #6C6C6C",
"5	c #161616",
"6	c #292929",
"7	c #828282",
"8	c #EBEBEB",
"9	c #535353",
"0	c #A8A8A8",
"a	c #232323",
"b	c #575757",
"c	c #A4A4A4",
"d	c #FAFAFA",
"e	c #1B1B1B",
"f	c #B5B5B5",
"g	c #F3F3F3",
"h	c #BEBEBE",
"i	c #4D4D4D",
"j	c #0B0B0B",
"k	c #303030",
"l	c #FCFCFC",
"m	c #D5D5D5",
"n	c #959595",
"o	c #676767",
"p	c #EEEEEE",
"q	c #D6D6D6",
"r	c #E5E5E5",
"s	c #141414",
"t	c #E4E4E4",
"u	c #C7C7C7",
"v	c #363636",
"w	c #969696",
"x	c #D7D7D7",
"y	c #C6C6C6",
"z	c #3E3E3E",
"A	c #2A2A2A",
"B	c #393939",
"C	c #F1F1F1",
"D	c #D4D4D4",
"E	c #323232",
"F	c #ACACAC",
"G	c #9D9D9D",
"H	c #CBCBCB",
"I	c #6F6F6F",
"J	c #2E2E2E",
"K	c #090909",
"L	c #050505",
"M	c #C3C3C3",
"N	c #777777",
"O	c #131313",
"P	c #0D0D0D",
"Q	c #5E5E5E",
"R	c #F4F4F4",
"................................................",
"................................................",
"................................................",
"................................................",
"................................................",
"................................................",
"................................................",
"................................................",
"................................................",
"................................................",
"................................................",
"................................................",
"................................................",
"................................................",
"................................................",
"................................................",
"................................................",
"................................................",
"................................................",
"................................................",
"................................................",
"................................................",
"................................................",
"................................................",
"................................................",
"................................................",
"................................................",
"................................................",
"......................................+@#$%.....",
"........&*=-;>,.......................'%%%%.....",
".......)!%%%%%%.......................~%{]......",
".......^%/(_:<[.......................}%|.......",
".......1%2.........%%....%%...%%345}%%%%%%%.....",
".......6%78........%%....%%...%%9%%%%%%%%%%.....",
".......0%%%abcd....%%....%%...%%efg...%%........",
"........hij%%%k8...%%....%%...%%).....%%........",
"..........lmn#%o...%%....%%...%%p.....%%........",
".............q%=...%%|..+%%...%%......%%........",
".............r%-...s%t..u%%...%%......%%........",
".......vwx+gyz%A...B%oCDE%%...%%......%%........",
".......%%%%%%%!F...G%%%%9%%...%%......%%........",
".......HIJKLe9M....|NOPQR%%...%%......%%........",
"................................................",
"................................................",
"................................................",
"................................................",
"................................................",
"................................................"};
