/* XPM */
static const char *voronoi_xpm[] = {
/* columns rows colors chars-per-pixel */
"32 32 4 1",
". c Black",
"  c #808080",
"X c #800000",
"o c #808000",
/* pixels */
"                .XXXXXXXXXXXXXXX",
"                .XXXXXXXXXXXXXXX",
"                .XXXXXXXXXXXXXXX",
"                .XXXXXXXXXXXXXXX",
"                .XXXXXXXXXXXXXXX",
"                .XXXXXXXXXXXXXXX",
"                .XXXXXXXXXXXXXXX",
"                .XXXXXXXXXXXXXXX",
"                .XXXXXXXXXXXXXXX",
"                .XXXXXXXXXXXXXXX",
"                .XXXXXXXXXXXXXXX",
"                .XXXXXXXXXXXXXXX",
"                .XXXXXXXXXXXXXXX",
"                .XXXXXXXXXXXXXXX",
"                .XXXXXXXXXXXXXXX",
"                .XXXXXXXXXXXXXXX",
"                .XXXXXXXXXXXXXXX",
"                .XXXXXXXXXXXXXXX",
"                .XXXXXXXXXXXXXXX",
"                .XXXXXXXXXXXXXXX",
"          ......................",
"          .ooooooooooooooooooooo",
"        ..oooooooooooooooooooooo",
"        .ooooooooooooooooooooooo",
"    ....oooooooooooooooooooooooo",
"    ..oooooooooooooooooooooooooo",
"  ..oooooooooooooooooooooooooooo",
"  ..oooooooooooooooooooooooooooo",
"..oooooooooooooooooooooooooooooo",
"oooooooooooooooooooooooooooooooo",
"oooooooooooooooooooooooooooooooo",
"oooooooooooooooooooooooooooooooo"
};
