/* XPM */
static const char *watershed_xpm[] = {
/* columns rows colors chars-per-pixel */
"48 48 2 1",
". c Black",
"  c #FFFFFF",
/* pixels */
"                                                ",
"                                                ",
"                       .                        ",
"                      ..                        ",
"                     ...                        ",
"                    .....                       ",
"                   .........                    ",
"                  ...........                   ",
"                   ............                 ",
"                    ............                ",
"                     ............               ",
"                      ..  .......               ",
"                       .    ......              ",
"                             .....              ",
"                             ......             ",
"                              .....             ",
"                              .....             ",
"                               .....            ",
"                               .....            ",
"                               .....            ",
"                               .....            ",
"                               .....            ",
"                               .....            ",
"                                                ",
"                                                ",
"                                                ",
"                                                ",
"                                                ",
"                                                ",
"                                                ",
"                                                ",
"                .                               ",
"               ..                               ",
"              ..........................        ",
"             ............................       ",
"            .............................       ",
"             ............................       ",
"              ..........................        ",
"               ..                               ",
"                .                               ",
"                                                ",
"                                                ",
"                                                ",
"                                                ",
"                                                ",
"                                                ",
"                                                ",
"                                                "
};
